<svg width="201" height="268" viewBox="0 0 201 268" fill="none" xmlns="http://www.w3.org/2000/svg">
<circle cx="180" cy="58.3851" r="20" fill="#006718"/>
<path d="M167.99 54.3848C169.612 50.0465 173.793 46.9565 178.698 46.9565C183.603 46.9565 187.784 50.0465 189.405 54.3848C189.871 55.6302 190.127 56.9778 190.127 58.3854C190.127 59.3604 190.004 60.3061 189.774 61.2094C189.625 61.7992 189.427 62.3707 189.19 62.9196L192.857 68.4769L185.608 67.4859C183.689 68.9454 181.295 69.8136 178.699 69.8136C173.361 69.8136 168.879 66.155 167.622 61.2087C167.392 60.3054 167.27 59.3596 167.27 58.3847C167.27 56.9771 167.525 55.6294 167.991 54.3841L167.99 54.3848ZM178.698 68.0428C184.031 68.0428 188.354 63.7191 188.354 58.3862C188.354 53.0532 184.031 48.7288 178.698 48.7288C173.365 48.7288 169.041 53.0525 169.041 58.3854C169.041 63.7184 173.365 68.0421 178.698 68.0421V68.0428Z" fill="white"/>
<path d="M179.385 62.7435C179.547 62.5885 179.794 62.5637 179.985 62.6813C180.403 62.9379 180.819 63.1958 181.236 63.4531C181.385 63.5445 181.579 63.5342 181.714 63.4231C183.166 62.2209 184.049 60.6847 184.419 58.8444C184.457 58.6558 184.36 58.4673 184.191 58.3737C183.847 58.1823 183.517 57.9623 183.194 57.7357C183.033 57.6217 182.945 57.4295 182.961 57.2329C183.018 56.5269 183.068 55.8194 183.096 55.1113C183.116 54.615 183.143 54.1612 183.673 54.0245C184.051 53.9273 184.41 53.8893 184.735 54.0172C185.548 54.3373 186.157 54.8803 186.529 55.6784C186.915 56.5057 186.923 57.3725 186.753 58.2407C186.486 59.6008 186.018 60.893 185.398 62.1361C184.557 63.8222 183.232 65.0463 181.718 66.1031C181.239 66.4379 180.731 66.6622 180.14 66.6842C178.668 66.7397 177.876 66.2508 177.44 65.0814C177.37 64.8914 177.364 64.7197 177.522 64.5654C178.143 63.9588 178.757 63.3442 179.384 62.7442L179.385 62.7435Z" fill="white"/>
<path d="M177.133 55.1031C176.848 54.3975 177.189 53.5947 177.895 53.3101C178.601 53.0254 179.403 53.3667 179.688 54.0723C179.973 54.7779 179.631 55.5806 178.926 55.8653C178.22 56.1499 177.417 55.8087 177.133 55.1031Z" fill="white"/>
<path d="M172.226 54.9699C172.015 54.2387 172.438 53.4755 173.169 53.2654C173.9 53.0553 174.664 53.4778 174.874 54.2091C175.084 54.9404 174.661 55.7035 173.93 55.9136C173.199 56.1237 172.436 55.7012 172.226 54.9699Z" fill="white"/>
<path fill-rule="evenodd" clip-rule="evenodd" d="M183.166 111.606C180.87 105.283 182.595 97.2783 177.863 92.0466C176.464 91.196 175.721 91.6692 175.145 93.1524C174.798 95.1041 173.983 101.824 176.913 101.821C177.282 106.018 177.051 110.245 176.149 114.364C173.986 114.017 172.41 115.129 170.832 115.955C169.656 116.571 168.479 117.029 167.058 116.606C161.194 115.573 159.522 121.731 159.451 126.758C159.365 129.211 159.135 134.929 158.054 137.309C153.164 127.181 142.894 122.571 133.109 120.294C131.575 119.87 130.266 119.29 129.282 118.299C121.037 115.044 124.998 104.378 121.205 98.2486C115.268 90.9615 108.138 88.8647 99.1555 90.1135C91.2963 90.9826 85.9541 98.9659 86.4386 106.502C86.5839 108.039 85.661 109.657 85.1181 111.239C79.6933 117.73 71.2521 120.634 63.9919 124.557C39.7763 136.392 31.3843 145.437 21.9739 170.621C17.5717 180.096 12.3032 189.292 10.5535 199.728C8.49748 212.025 8.49103 224.613 9.20679 237.032C7.87049 237.192 9.32471 246.738 10.4968 250.045C10.8984 251.179 11.8607 251.996 13.0597 251.977C15.4715 253.149 21.1342 257.873 23.6569 257.716C31.8075 257.214 39.7302 257.991 47.5828 257.589C56.0784 257.155 64.492 255.57 73.0238 255.776C87.9024 256.134 77.2501 257.017 92.6434 257.716C102.361 258.164 137.812 252.857 147.502 253.724C155.384 255.382 158.98 252.587 157.777 244.353C157.333 241.196 155.913 234.177 160.583 233.879C162.792 234.136 164.62 236.343 166.275 237.633C180.893 248.516 195.826 240.679 197.003 222.789C199.218 207.783 202.324 204.238 195.572 189.254C174.208 133.471 206.395 141.05 184.663 114.922C182.966 116.4 183.398 112.456 183.166 111.606Z" fill="white"/>
<path fill-rule="evenodd" clip-rule="evenodd" d="M175.047 91.6288C176.213 90.483 178.066 90.768 179.203 91.7868C180.36 92.8214 181.057 94.4478 181.651 95.8498C184.316 102.153 183.695 109.055 185.044 115.649C187.511 116.982 189.739 118.722 191.316 121.063C193.712 124.618 194.849 128.759 193.648 132.973C193.027 135.153 191.972 137.173 191.22 139.307C190.417 141.579 189.925 143.939 189.689 146.338C189.458 148.692 189.427 151.059 189.494 153.422C189.529 154.646 189.594 155.868 189.658 157.089C189.716 158.184 189.91 159.326 189.648 160.399L189.616 160.522C189.718 160.506 189.818 160.486 189.919 160.464C190.778 160.273 191.534 159.975 192.431 160.092C193.129 160.184 193.492 160.767 193.196 161.425C193.067 161.712 192.896 161.952 192.689 162.157C194.491 175.485 197.639 188.598 199.711 201.883C200.649 207.911 201.221 213.956 200.899 220.059L200.865 220.664C200.536 226.267 199.728 232.442 196.88 237.342C195.55 239.636 193.721 241.672 191.505 243.138C190.49 243.81 189.402 244.335 188.221 244.598C182.098 247.036 175.623 246.438 169.85 243.214C167.253 241.765 164.663 240.077 162.543 237.981C161.513 236.962 160.518 235.665 159.909 234.247C159.911 234.566 159.853 234.891 159.918 235.204L160.046 235.824C161.008 240.43 164.673 257.451 164.721 258.88C164.748 259.651 158.258 259.632 157.554 259.656L157.535 259.656C147.025 260.094 136.508 259.86 126.004 259.426L125.175 259.391C114.988 258.96 103.903 258.381 93.7051 258.083L93.7263 257.913C93.8483 256.997 94.4424 252.924 94.5086 252.611L94.511 252.601C94.8001 251.436 95.3576 247.813 95.0641 246.611C94.3083 243.515 90.9018 244.223 88.5052 244.551L88.0003 244.617C87.6124 244.67 86.6684 244.809 86.6772 244.818C86.4226 244.553 87.0284 243.8 87.1775 243.599L87.297 243.433C87.9409 242.532 88.5235 241.596 88.4598 240.435C88.305 237.598 84.2518 237.758 82.26 237.955C82.1196 237.969 82.0622 238.188 82.224 238.221L82.6169 238.303C83.8805 238.574 86.6873 239.265 86.6238 240.311C86.5878 240.905 85.9552 241.343 85.5687 241.717C85.1427 242.13 84.7193 242.574 84.4049 243.081C83.7997 244.056 83.6622 245.371 84.2609 246.387C84.9516 247.558 86.1767 247.694 87.4036 247.588L87.4731 247.581C87.7431 247.556 88.0131 247.53 88.2831 247.504L89.9029 247.345C90.3041 247.306 91.593 246.969 91.9694 247.202C92.503 247.532 91.8613 248.995 91.7409 249.477L91.7346 249.511C91.6311 250.209 91.5692 257.521 91.5587 258.004C83.6115 257.82 75.6631 256.053 67.7161 256.468C61.4026 256.798 55.1062 257.368 48.8045 257.863L48.6455 256.51C46.8989 241.78 44.1603 222.343 45.4747 207.774C45.5775 206.633 43.7968 206.64 43.6947 207.774C42.3357 222.839 45.3105 243.078 47.0408 257.999C44.3582 258.202 41.6745 258.387 38.9876 258.528L38.3025 258.563C29.1596 259.02 19.7229 259.048 10.7754 256.951C10.4995 256.886 10.4061 256.61 10.4639 256.381C10.3749 256.432 10.2414 256.403 10.2036 256.279C9.16129 252.843 8.63186 244.095 8.1595 240.309L8.12774 240.061C7.6427 236.383 7.36459 232.663 7.16434 228.963C6.7594 221.561 6.80835 214.15 7.35569 206.756C9.09781 183.174 16.0352 159.349 30.5952 140.397C34.115 135.816 38.1221 131.624 42.9302 128.383C47.6471 125.201 52.938 122.96 58.3068 121.141C61.8556 119.937 65.46 118.907 69.0644 117.879C69.2008 117.81 69.3373 117.743 69.4744 117.677L69.6807 117.579C70.9622 116.971 72.2238 116.306 73.5365 115.765L73.8266 115.647C75.7288 114.884 77.9451 114.209 80.0044 114.232C83.3396 112.552 86.1408 110.014 85.8693 105.942C85.7581 104.269 88.3835 104.271 88.477 105.942C88.7217 110.387 85.983 113.54 82.4919 115.656L82.5086 115.673L82.5253 115.692C83.0704 116.31 83.6533 116.884 84.283 117.418C88.052 120.626 92.82 123.29 97.5859 125.043C103.177 127.101 108.764 127.717 114.547 126.053C117.57 125.183 120.425 123.842 123.048 122.106C123.849 121.577 124.617 121.009 125.353 120.402C124.657 119.449 124.1 118.424 123.633 117.336C122.695 115.146 121.918 112.181 122.877 109.869C123.113 109.299 124.049 108.948 124.376 109.673C125.277 111.658 125.653 113.803 126.704 115.743C127.104 116.481 127.565 117.182 128.081 117.843C128.081 117.879 132.023 118.553 132.023 118.553C136.789 118.551 141.277 120.382 145.493 122.669C147.986 124.021 150.435 125.459 152.877 126.9L157.65 129.715C158.002 129.922 158.396 130.123 158.789 130.336C158.329 128.062 158.104 125.744 158.255 123.445C158.485 119.979 159.833 116.188 163.404 114.953C165.093 114.368 167.046 114.548 168.686 115.198C169.442 115.498 170.266 115.896 170.969 116.428C171.309 114.897 172.744 113.749 174.186 113.242C174.653 113.077 175.132 112.973 175.617 112.922C175.602 112.676 175.601 112.427 175.604 112.172L175.608 111.978C175.63 110.843 175.621 109.709 175.597 108.576C175.552 106.429 175.45 104.327 175.232 102.186C175.05 100.414 174.733 98.6627 174.499 96.898L174.401 96.1394C174.203 94.645 173.871 92.7839 175.047 91.6288ZM31.6843 236.514L31.2864 236.278C29.9836 235.509 28.6415 234.8 27.0631 235.156C25.5595 235.495 24.4928 236.716 23.9324 238.091C23.6676 238.741 23.5294 239.397 23.4273 240.089C23.3699 240.477 23.3312 240.868 23.2631 241.254L23.2403 241.373C23.2095 241.527 23.1623 241.741 23.1194 241.927C22.7091 241.746 22.2959 241.46 21.9602 241.29L21.6894 241.154C21.0539 240.837 20.3928 240.536 19.7003 240.39C18.2003 240.073 16.5362 240.531 15.6787 241.875C14.9453 243.024 14.9603 244.379 15.2409 245.667L15.2609 245.756C15.3826 246.291 16.0116 248.431 16.9265 248.119C17.8162 247.815 17.9351 246.632 18.0025 245.844L18.0075 245.769C18.0378 245.175 17.92 243.926 18.593 243.701C19.4338 243.419 21.0515 244.706 21.7837 245.042C23.0931 245.644 24.5315 245.821 25.5971 244.651C26.5524 243.602 26.633 242.067 26.8803 240.737L26.9441 240.402C27.0753 239.726 27.3291 238.646 28.077 238.674C28.6882 238.696 29.3592 239.33 29.8629 239.63C30.419 239.962 30.9963 240.239 31.5997 240.475C33.0079 241.025 34.5736 241.201 36.0716 241.038C36.9396 240.944 37.5047 240.53 37.8115 239.714C37.9154 239.474 37.9947 239.227 38.0494 238.971C38.5358 237.144 35.8783 235.84 34.8984 237.474C33.7679 237.432 32.7155 237.127 31.6843 236.514ZM195.238 224.294C194.428 223.716 193.327 223.841 192.603 224.492L192.56 224.532C192.359 224.726 191.907 225.231 191.614 225.674L191.522 225.603C191.507 225.592 191.493 225.58 191.479 225.569L191.439 225.536C190.84 225.03 190.215 224.566 189.444 224.36C187.436 223.82 185.61 225.164 184.734 226.888C184.318 227.706 184.14 228.55 183.932 229.432L183.915 229.513C183.831 229.924 183.722 230.757 183.362 230.961C183.23 231.035 182.929 230.888 182.632 230.716C181.954 230.325 181.346 229.826 180.681 229.414C179.123 228.447 177.351 228.047 175.601 228.744C173.868 229.434 172.626 231.063 172.597 232.961C172.575 234.36 173.512 236.801 175.275 236.63C175.628 236.596 176.083 236.378 176.14 235.972C176.292 234.892 175.44 233.565 176.417 232.673C177.361 231.81 178.34 232.536 179.195 233.134L179.807 233.564C180.803 234.255 181.827 234.888 183.087 234.963C184.681 235.058 186.153 234.178 186.955 232.821C187.68 231.595 187.691 230.208 188.257 228.948C188.381 228.673 188.701 228.419 188.595 228.293C189.024 228.516 189.578 229.161 189.846 229.342C191.179 230.241 192.961 230.234 194.129 229.042C194.594 228.568 194.891 227.982 195.235 227.424C195.36 227.221 195.515 227.035 195.629 226.827C195.671 226.751 195.739 226.467 195.795 226.214L195.882 225.812L195.891 225.746C195.965 225.138 195.75 224.659 195.238 224.294ZM143.906 218.983C142.375 218.179 140.487 218.485 139.108 219.459C137.561 220.551 136.802 222.229 136.286 224.002C135.911 225.293 135.731 227.074 134.651 228.009C133.395 229.097 131.289 227.942 129.963 227.513C128.359 226.994 126.431 226.782 124.865 227.549C123.331 228.301 122.592 229.835 122.434 231.479C122.286 233.013 122.505 235.033 123.38 236.316C123.467 236.443 123.631 236.41 123.686 236.276C124.261 234.86 124.15 233.24 124.617 231.774C125.115 230.21 126.284 229.879 127.768 230.3C129.315 230.739 130.732 231.56 132.324 231.852C134.02 232.164 135.7 231.843 137.038 230.722C138.163 229.778 138.845 228.404 139.305 227.035C139.754 225.7 139.827 223.913 140.783 222.805C141.024 222.526 141.445 222.188 141.835 222.152C142.415 222.099 142.624 222.53 143.093 222.86C144.328 223.732 146.3 223.749 147.057 222.216C147.305 221.714 147.427 221.001 147.057 220.509C146.407 219.648 145.874 219.655 145.017 219.841C144.99 219.818 144.959 219.789 144.925 219.749L144.899 219.717C144.672 219.43 144.232 219.155 143.906 218.983ZM83.2677 209.933C83.217 208.78 81.8293 207.674 80.7346 208.479C80.558 208.607 80.3842 208.739 80.2138 208.876L80.1439 208.951C79.9403 208.95 79.7503 208.897 79.5492 208.833L79.1973 208.72C78.2736 208.427 77.3855 208.191 76.3995 208.407C74.703 208.78 73.6266 210.243 73.0739 211.797C72.5589 213.245 72.728 214.722 72.4863 216.206C72.2573 217.614 71.534 218.163 70.1759 217.862L70.1063 217.846C67.405 217.199 64.3273 215.39 61.959 217.87C59.4006 220.549 61.0742 224.804 63.8747 226.525C63.9971 226.601 64.1323 226.477 64.1045 226.349C63.7325 224.618 62.647 222.968 63.0108 221.131C63.2628 219.858 64.1475 219.255 65.4099 219.458C68.0651 219.885 70.5486 222.001 73.2719 220.465C74.6323 219.698 75.3819 218.257 75.7207 216.78C76.026 215.451 75.9394 213.953 76.5244 212.699C77.1643 211.327 78.242 212.322 79.4034 212.509C81.0466 212.774 83.3551 211.912 83.2677 209.933ZM172.349 168.942C172.354 167.797 170.575 167.795 170.569 168.942C170.504 183.453 163.715 196.866 162.495 211.234C162.399 212.375 164.179 212.368 164.275 211.234C165.495 196.862 172.284 183.477 172.349 168.942ZM25.3695 192.696C24.4323 191.634 23.0595 191.964 21.9444 192.495C20.2695 193.294 18.6666 194.192 17.1301 195.229C16.752 195.484 16.9903 196.039 17.4353 195.954C18.5623 195.737 19.6592 195.494 20.7525 195.143C21.5742 194.879 22.4294 194.496 23.2862 194.36C23.2326 194.557 23.1674 194.75 23.0907 194.939C22.9501 195.328 22.7868 195.709 22.6481 196.099C22.3724 196.876 22.1239 197.664 21.883 198.453L21.7631 198.848C21.2622 200.501 20.7756 202.908 23.0869 203.417C23.9444 203.605 24.7944 203.232 25.5921 202.938L25.7564 202.879L28.6662 201.847C29.0128 201.725 29.6549 201.639 29.9424 201.424L29.8964 201.645C29.8369 201.938 29.7784 202.225 29.6522 202.517L29.5818 202.679C28.859 204.317 27.9478 205.957 28.7907 207.768C29.513 209.32 31.2202 210.056 32.8653 209.616C34.4287 209.197 35.5601 207.437 34.7507 205.905C34.4491 205.334 33.5666 205.055 33.0058 205.412L32.8552 205.512C32.6786 205.627 32.3745 205.825 32.3671 205.862C32.3253 205.873 32.2815 205.883 32.237 205.894C32.3313 205.617 32.3949 205.19 32.4777 205.001L32.7822 204.309C33.3487 203.01 33.8397 201.688 33.4075 200.231C32.1698 196.057 27.9724 198.43 24.8762 199.621C24.9214 199.445 24.9661 199.27 25.0039 199.1C25.1374 198.496 25.2834 197.895 25.4279 197.293L25.7241 196.052C25.9907 194.908 26.1982 193.634 25.3695 192.696ZM183.782 188.038C183.785 187.939 183.664 187.863 183.578 187.921C181.599 189.252 180.275 192.03 181.018 194.397C181.38 195.547 182.148 196.555 183.226 197.113C184.566 197.806 186.047 197.542 187.455 197.245L188.053 197.118C188.475 197.029 188.891 196.964 189.32 197.082C189.467 197.123 189.638 197.251 189.778 197.279C189.72 197.377 189.659 197.548 189.628 197.611L189.526 197.816C189.423 198.025 189.323 198.241 189.261 198.46C189.05 199.193 189.102 199.98 189.443 200.664C190.078 201.938 191.41 202.657 192.797 202.779C193.623 202.852 195.704 202.129 196.196 203.005C197.173 204.745 199.954 203.575 199.414 201.649C199.048 200.346 198.011 199.505 196.726 199.153C196.042 198.965 195.333 198.99 194.637 199.067C194.364 199.097 194.092 199.139 193.819 199.168L193.614 199.187C193.668 199.183 193.048 199.168 192.8 199.152L192.853 199.009C192.861 198.989 192.868 198.971 192.874 198.958C193.151 198.366 193.356 197.776 193.339 197.114C193.309 195.922 192.537 194.881 191.522 194.307C190.587 193.777 189.474 193.566 188.411 193.684C187.242 193.814 185.581 194.739 184.432 194.251C183.566 193.884 183.272 192.602 183.259 191.762C183.239 190.497 183.747 189.298 183.782 188.038ZM103.156 179.74C99.9708 178.311 97.2359 180.752 95.3669 183.088C95.2706 183.209 95.3918 183.412 95.5438 183.318L95.792 183.163C97.318 182.206 99.0099 181.075 100.901 181.401C102.613 181.696 103.037 182.816 102.696 184.343L102.596 184.772C102.234 186.344 101.956 187.971 102.858 189.433C103.71 190.813 105.371 191.417 106.927 191.454C108.722 191.496 110.271 190.661 111.912 190.079L112.042 190.034C112.738 189.793 115.281 189.164 115.316 190.596C115.332 191.251 114.632 192.02 114.362 192.608C114.009 193.378 113.775 194.187 113.779 195.041C113.789 197.173 115.568 198.904 117.673 197.87C118.491 197.468 118.702 196.314 118.275 195.573C117.674 194.528 117.431 194.583 117.852 193.485L117.973 193.176C118.491 191.854 118.904 190.493 118.322 189.105C117.159 186.334 113.673 185.998 111.182 186.916L111.091 186.95C109.54 187.551 104.897 189.957 105.217 186.554C105.343 185.214 105.75 183.928 105.466 182.573C105.201 181.315 104.323 180.264 103.156 179.74ZM87.8095 168.358C87.2281 167.334 85.2764 167.7 85.4381 169L85.4899 169.404C85.5561 169.958 85.5706 170.478 85.188 170.971C84.7239 171.568 83.9294 171.749 83.2083 171.657C81.6815 171.464 80.7079 170.049 79.0276 170.379C77.6637 170.648 76.7219 171.764 76.1766 172.98C75.5992 174.269 75.6115 175.666 75.1814 176.993C74.6861 178.519 73.6299 178.449 72.311 177.915L72.0271 177.798C70.7653 177.274 69.4994 176.691 68.0934 176.941C65.7583 177.358 63.7474 180.949 65.9352 182.682C66.3301 182.995 67.0203 182.832 67.0036 182.24L67.0014 182.128C66.9904 181.051 67.2621 179.661 68.4963 179.407C69.8053 179.138 71.2842 180.332 72.4997 180.676C75.6477 181.567 77.441 179.197 77.9757 176.395L77.9952 176.288C78.1659 175.307 78.3008 173.492 79.3267 173.032C79.8738 172.787 80.4574 173.39 80.9146 173.633C81.625 174.01 82.3873 174.249 83.1909 174.31C86.1639 174.537 89.542 171.41 87.8095 168.358ZM162.206 164.487C161.226 164.063 159.765 164.299 159.526 165.577L159.381 166.382C159.096 167.936 158.643 169.879 157.115 170.438C156.16 170.788 155.063 170.175 154.206 169.801C153.177 169.351 152.174 168.966 151.047 168.859C148.76 168.642 147.057 169.965 146.248 172.033L146.178 172.217C145.525 173.954 144.644 177.276 146.072 178.685C146.28 178.891 146.701 178.992 146.957 178.799C147.8 178.166 148.014 177.126 148.304 176.15L148.329 176.067C148.636 175.053 148.888 173.937 149.443 173.024C150.475 171.327 153.168 173.265 154.463 173.712C156.59 174.447 158.795 174.018 160.421 172.446C161.447 171.453 162.054 170.196 162.472 168.866C162.738 169.003 163.015 169.123 163.313 169.203C164.447 169.51 165.793 169.348 166.657 168.489C168.279 166.875 167.399 163.981 164.927 164.449C164.44 164.541 164.121 165.006 164.063 165.481L164.03 165.556C163.408 165.351 162.727 164.713 162.206 164.487ZM47.64 150.073C45.3301 147.697 41.3214 148.985 39.7415 151.506C39.4137 152.028 39.955 152.691 40.5304 152.532C41.9057 152.153 43.8462 150.662 45.2996 151.611C46.3769 152.315 45.7908 154.154 45.6923 155.183L45.6781 155.337C45.5534 156.737 45.5251 158.654 46.6161 159.702C47.2441 160.306 48.2072 160.224 49.0354 160.138L49.2987 160.111C50.275 160.013 51.2448 159.841 52.18 159.54C53.0397 159.264 53.8543 158.889 54.6621 158.492L54.8639 158.393C55.2215 158.215 56.4138 157.512 56.7709 157.954C56.9571 158.184 56.4957 159.194 56.3998 159.419C56.0376 160.266 55.577 161.063 55.2448 161.925C54.6594 163.444 54.6105 165.157 55.4326 166.606C56.2291 168.01 57.955 169.148 59.4847 168.069C60.3604 167.452 60.358 166.328 59.4847 165.71C59.0226 165.383 58.5566 165.167 58.3657 164.619C58.1166 163.903 58.4372 163.144 58.7476 162.482L59.1192 161.694C59.9425 159.935 60.7649 157.912 59.6148 156.114C58.4272 154.257 56.0133 154.227 54.1873 155.001C53.1452 155.442 52.1942 156.034 51.1082 156.376C50.3569 156.612 49.6026 156.77 48.833 156.857C48.6615 155.931 48.9042 154.894 48.9066 153.974C48.9106 152.577 48.6503 151.113 47.64 150.073ZM166.755 117.015C162.857 116.444 160.97 119.93 160.701 123.287C160.458 126.336 160.952 129.393 161.724 132.357C162.013 133.455 162.338 134.541 162.679 135.609C163.226 137.325 163.82 139.038 164.543 140.689C164.763 141.187 164.986 141.688 165.235 142.168C166.089 142.868 166.819 143.811 167.483 144.717L167.919 145.315L168.036 145.477C169.164 147.021 170.128 148.623 170.915 150.365C171.666 152.024 172.224 153.754 172.658 155.52L172.765 155.961C173.098 157.319 173.591 158.941 172.996 160.206C174.164 160.566 175.325 160.893 176.567 161.067C178.28 161.307 180.062 161.323 181.791 161.261C183.461 161.199 185.13 161.069 186.793 160.892L187.991 160.76C188.115 160.746 188.24 160.731 188.363 160.715C188.317 160.658 188.277 160.593 188.248 160.522C187.821 159.498 187.876 158.312 187.828 157.211L187.823 157.089C187.76 155.868 187.723 154.646 187.707 153.422C187.678 151.126 187.74 148.823 187.992 146.538C188.21 144.538 188.55 142.538 189.082 140.595C189.618 138.626 190.437 136.777 191.193 134.886C191.941 133.017 192.558 131.097 192.491 129.059C192.448 127.764 192.164 126.505 191.681 125.314C191.658 125.332 191.63 125.346 191.596 125.343C190.081 125.288 188.646 124.849 187.182 124.48C185.629 124.086 184.038 123.764 182.449 123.572L182.112 123.533C180.788 123.384 179.345 123.312 178.122 123.879C176.798 124.496 175.964 125.866 175.461 127.181L175.405 127.333C174.512 129.825 174.716 133.152 177.479 134.332C178.336 134.699 180.291 134.924 180.732 133.763C180.93 133.233 180.523 132.45 180.369 131.949C180.189 131.353 180.071 130.766 180.084 130.143C180.095 129.596 180.513 129.184 181.044 129.14L181.092 129.137C182.058 129.095 184.049 127.982 184.243 129.584C184.281 129.896 184.043 130.223 183.791 130.374C183.284 130.674 182.754 130.875 182.202 130.997C182.278 131.331 182.385 131.658 182.49 131.983C182.552 131.951 182.621 131.932 182.694 131.925C183.511 131.858 184.318 131.987 185.135 131.996L185.581 131.999C186.215 132.005 186.768 132.039 187.382 132.367C187.95 132.67 187.849 133.429 187.382 133.754C186.156 134.604 184.08 134.105 182.803 133.242C182.859 133.68 182.832 134.127 182.645 134.597C182.093 135.99 180.512 136.684 179.097 136.744C177.839 136.797 176.638 136.401 175.634 135.707C175.43 136.439 175.1 137.142 174.958 137.901C174.771 138.898 174.994 140.064 174.647 141C174.3 141.944 172.958 142.575 172.181 141.65C171.044 140.297 171.398 138.155 172.397 136.784C172.929 136.059 173.895 135.227 174.878 135.095C174.195 134.452 173.648 133.658 173.303 132.781C173.278 132.792 173.249 132.795 173.218 132.786C170.021 131.912 168.281 129.014 168.174 125.973C167.938 126.142 167.694 126.294 167.438 126.429C166.826 126.759 166.041 126.469 165.851 125.786C165.678 125.15 166.183 124.365 166.893 124.418C167.298 124.451 167.705 124.453 168.108 124.387C168.163 124.378 168.217 124.367 168.272 124.355C168.308 124.122 168.354 123.888 168.412 123.657C167.204 123.795 165.94 123.597 164.772 123.339C163.767 123.118 164 121.519 165.013 121.556L165.175 121.564C166.504 121.627 168.464 121.842 169.603 121C169.803 120.711 170.025 120.437 170.266 120.179C170.297 120.115 170.324 120.046 170.348 119.975C170.96 118.212 168.061 117.207 166.755 117.015ZM131.763 141.805C130.245 141.4 128.648 141.953 127.604 143.098C126.727 144.062 126.273 145.244 125.867 146.453L125.635 147.149C125.298 148.134 124.91 148.915 123.705 148.54C122.159 148.058 120.82 147.22 119.139 147.286C117.611 147.346 116.116 148.003 115.053 149.105C113.965 150.231 113.446 151.801 113.677 153.347L113.692 153.442C113.812 154.154 114.854 156.697 115.959 155.526C116.451 155.004 116.354 154.427 116.471 153.763C116.582 153.131 116.82 152.512 117.21 151.999C117.902 151.091 119.014 150.737 120.102 151.059C121.536 151.482 122.802 152.356 124.347 152.377C125.973 152.398 127.353 151.556 128.249 150.232C128.973 149.164 129.231 147.914 129.74 146.753L129.789 146.642C130.217 145.686 130.508 145.341 131.488 145.798L131.83 145.962C133.296 146.659 134.946 147.297 136.462 146.314C137.871 145.402 138.471 143.568 137.286 142.233C136.633 141.496 135.119 141.621 134.695 142.567C134.62 142.729 134.551 142.894 134.483 143.06C134.353 143.02 134.227 142.972 134.107 142.905C133.313 142.547 132.622 142.035 131.763 141.805ZM87.4599 131.01C85.7289 130.077 84.2836 131.912 84.5602 133.569L84.5736 133.641C84.5838 133.691 84.6072 133.801 84.6363 133.926C84.5479 133.915 84.4605 133.899 84.3733 133.877L83.9711 133.828C83.3389 133.754 82.726 133.716 82.0932 133.919C80.5996 134.398 79.8651 135.85 79.8291 137.338C79.7933 138.821 80.5604 140.017 80.7858 141.433C81.0164 142.881 79.5171 142.468 78.5383 142.362L78.4999 142.358C77.1382 142.22 75.7067 142.218 74.5751 143.105C73.4063 144.022 72.8886 145.605 73.0537 147.055C73.2028 148.365 74.0222 150.381 75.5067 150.587C75.6533 150.608 75.8202 150.576 75.8954 150.429C76.4957 149.262 75.6604 147.973 75.7548 146.742C75.8587 145.387 76.7222 145.162 77.9127 145.25C79.0681 145.335 80.2207 145.58 81.3618 145.235C82.5998 144.861 83.4982 143.799 83.7523 142.546C84.0324 141.165 83.5176 139.88 83.1836 138.567C83.0726 138.131 83.0181 137.693 83.0946 137.247C83.1111 137.151 83.1947 137.062 83.225 137.024C83.415 136.988 83.6993 137.079 83.862 137.097L84.0927 137.119C85.3465 137.233 86.5543 137.157 87.4501 136.121C87.9093 135.59 88.0788 134.941 88.033 134.257L88.01 133.98C87.9855 133.714 87.9386 133.363 87.8004 133.217L87.7986 133.21C87.845 133.147 87.889 133.083 87.9293 133.017L87.9683 132.95C88.3524 132.31 88.1296 131.371 87.4599 131.01ZM176.149 114.77C174.424 114.77 172.795 115.333 171.492 116.866C171.957 117.309 172.328 117.823 172.533 118.426C173.171 118.077 173.848 117.803 174.54 117.609C176.651 117.02 179.539 117.029 181.315 118.477C182.245 119.234 181.224 120.591 180.222 120.357C179.326 120.148 178.547 119.761 177.606 119.716C176.789 119.676 175.988 119.783 175.205 120.019C174.01 120.38 172.925 121.063 172.126 122.004C171.859 122.32 171.625 122.662 171.429 123.032C169.939 125.862 171.062 129.92 173.12 132.25C172.313 129.566 173.118 126.402 174.727 124.18C176.663 121.504 179.56 121.2 182.612 121.618L182.712 121.632C185.665 122.048 189.32 122.776 191.527 124.945C191.307 124.444 191.053 123.959 190.768 123.49C189.095 120.735 186.321 118.586 183.442 117.053C182.959 116.793 182.472 116.553 181.987 116.33C180.142 115.482 178.086 114.77 176.149 114.77ZM177.092 93.7492L177.085 93.7805C177.084 93.7863 177.082 93.7922 177.081 93.7982C176.979 94.7029 177.219 95.7414 177.342 96.6545L177.359 96.784C177.617 98.8621 177.957 100.942 178.069 103.036C178.177 105.049 178.135 107.138 177.893 109.143L177.857 109.428C177.715 110.521 177.63 111.802 177.261 112.924C178.68 113.059 180.1 113.516 181.39 114.001C181.853 114.176 182.314 114.361 182.772 114.557C182.198 111.506 181.891 108.412 181.268 105.37L181.145 104.765C180.468 101.4 179.832 98.014 178.082 95.0041C177.848 94.6036 177.597 94.2676 177.312 93.9094C177.25 93.8273 177.176 93.7739 177.092 93.7492Z" fill="#1D3451"/>
<path fill-rule="evenodd" clip-rule="evenodd" d="M105.249 17.7448C117.882 17.7448 136.373 26.181 137.764 34.2974C139.403 43.8624 143.043 79.8294 141.061 91.5991C139.079 103.369 131.353 112.065 114.265 112.065C97.1781 112.065 84.4244 102.747 81.4961 99.5476C78.5677 96.3481 75.0194 86.3916 75.0194 86.3916C75.0194 86.3916 65.664 84.8058 65.6207 77.3481C65.5773 69.8903 70.3204 67.5856 70.3204 67.5856C70.3204 67.5856 67.7605 36.6481 73.1408 28.9856C78.5211 21.3231 92.6153 17.7448 105.249 17.7448Z" fill="white"/>
<path fill-rule="evenodd" clip-rule="evenodd" d="M143.391 57.1433C144.083 64.6614 144.343 72.244 144.477 79.791C144.606 86.9419 143.976 94.3999 139.902 100.514C136.34 105.863 130.916 109.745 124.875 111.841C121.437 113.036 117.631 113.479 113.999 113.588C112.124 113.643 110.244 113.563 108.379 113.37C108.145 113.345 107.909 113.324 107.673 113.303C106.094 113.162 104.528 113.023 103.377 111.83C103.015 111.454 103.019 110.682 103.556 110.437C104.577 109.972 105.269 109.923 106.388 110.077C107.316 110.203 108.246 110.304 109.18 110.368C111.182 110.508 113.198 110.513 115.201 110.359C118.881 110.077 122.646 109.038 125.987 107.463C131.227 104.988 135.728 100.934 138.158 95.6147C140.943 89.5239 140.803 82.4803 140.673 75.9216L140.668 75.6526C140.523 68.377 140.254 61.1237 139.622 53.8727C139.382 51.1295 139.041 48.4012 138.7 45.6719C138.604 44.9036 138.508 44.1353 138.414 43.3665C138.189 41.5064 137.893 39.6551 137.53 37.8175C137.421 37.2626 137.293 36.7121 137.165 36.1623C137.069 35.7486 136.973 35.3352 136.885 34.9206C136.736 34.9449 136.585 34.9584 136.429 34.9649C135.499 34.9963 134.482 34.7693 133.792 34.1085C133.528 34.2887 133.192 34.4022 132.787 34.4222C130.314 34.5444 127.815 34.4899 125.322 34.4356C123.96 34.4059 122.6 34.3763 121.246 34.3755C117.401 34.3733 113.554 34.3755 109.707 34.3866C109.121 34.3883 108.534 34.3905 107.948 34.3928C104.689 34.4053 101.425 34.4177 98.1713 34.331C97.4816 34.3126 96.7874 34.3006 96.0909 34.2885C93.1762 34.2381 90.2193 34.187 87.3714 33.6591C86.1855 37.8731 86.2276 42.5032 88.6997 46.2678C89.3981 47.3291 88.8307 48.5795 87.921 49.2426C86.9907 49.9192 85.3187 50.9566 83.888 51.0632C83.8326 51.1878 83.7765 51.3121 83.7205 51.4362C83.6366 51.6222 83.5529 51.8078 83.4718 51.993C82.7889 53.5489 82.1737 55.1146 81.7432 56.762C81.5214 57.611 81.3305 58.474 81.1698 59.3424C81.183 59.4944 81.1965 59.6461 81.2128 59.7977C81.2128 59.8114 81.2145 59.8249 81.2164 59.8401L81.2172 59.8464C81.2261 59.9089 81.2372 59.9801 81.2439 60.0202C81.2641 60.1271 81.2841 60.234 81.3042 60.3409C81.3658 60.6699 81.4274 60.9987 81.4931 61.3262C81.7 62.383 81.86 63.4488 81.9737 64.5188C82.1806 66.4769 82.1606 69.0223 80.2516 70.1815C79.2304 70.8022 78.0066 70.7377 76.9273 70.3214C76.3256 70.089 75.7988 69.7767 75.2556 69.4547C75.1441 69.3886 75.032 69.3222 74.9184 69.2559C74.7429 69.1532 74.5638 69.0589 74.385 68.9649C74.1606 68.8467 73.9367 68.7289 73.7212 68.5951C73.6146 68.5283 73.5123 68.4482 73.4166 68.3637C72.6935 68.5172 71.988 68.8042 71.5921 69C70.5306 69.5273 69.5986 70.2905 68.8063 71.1671C67.1222 73.0338 66.6172 75.6637 66.853 78.1045C67.0731 80.3761 67.9655 82.9858 69.7608 84.4967C70.5417 85.1551 71.5165 85.5402 72.5466 85.5291C73.0537 85.5246 73.5212 85.4178 74.0106 85.2888C74.2194 85.2339 74.4495 85.2099 74.6793 85.1859C74.9809 85.1543 75.2822 85.1228 75.5347 85.0218C76.1953 84.757 77.0099 85.5647 76.7406 86.2277C76.6807 86.375 76.6285 86.5173 76.578 86.6546C76.4576 86.982 76.3474 87.2817 76.1686 87.556C78.0111 90.5641 80.0291 93.4788 82.1759 96.2755C83.5373 98.0469 85.0682 99.6201 86.606 101.2C87.2548 101.867 87.9047 102.535 88.5437 103.22C89.494 104.239 89.89 106.245 88.1702 106.681C86.6574 107.068 85.4821 105.681 84.5494 104.581C84.4244 104.433 84.3038 104.291 84.1873 104.159C80.1047 99.5151 77.0188 94.1839 75.5746 88.1656C74.9229 88.6284 74.1751 88.8798 73.3874 88.9889C71.8189 89.2047 70.2327 88.8954 68.8577 88.1011C63.6511 85.0952 62.3918 76.972 64.8303 71.8813C65.4184 70.6556 66.287 69.5614 67.3458 68.7117C67.2624 68.5521 67.2295 68.3652 67.2831 68.1643C67.3772 67.8126 67.4807 67.465 67.5892 67.1188C67.4707 67.0661 67.3839 66.9571 67.4004 66.7951C67.4832 65.9478 67.5643 65.1006 67.6454 64.2533L67.6896 63.7914C67.6794 63.3323 67.6655 62.8733 67.6517 62.4142C67.6198 61.3605 67.588 60.3059 67.6004 59.2459C67.6129 58.118 67.6514 56.9906 67.6898 55.8632C67.734 54.5665 67.7783 53.2698 67.783 51.9726C67.7974 47.7711 67.8897 43.5718 67.9819 39.3725C68.0754 35.117 68.1689 30.8615 68.1813 26.6038C68.1944 22.4674 68.2033 18.3248 68.0943 14.1909C68.0931 14.1616 68.0926 14.1329 68.092 14.1042C68.0915 14.0784 68.091 14.0525 68.0901 14.0262C68.0764 13.5189 68.0442 12.9852 68.0112 12.4375C67.8288 9.41361 67.6205 5.96186 70.3595 4.14949C70.8913 3.79818 71.5543 3.79373 72.1328 4.02067C73.797 2.86148 75.884 2.3028 77.8798 1.98018C80.8218 1.50523 83.7837 1.22048 86.747 0.93559C87.6138 0.852264 88.4806 0.768927 89.3471 0.680815C91.3449 0.478346 93.4475 0.400695 95.4588 0.445194C96.5053 0.46809 97.5587 0.430318 98.6137 0.392489C99.6092 0.356795 100.606 0.32105 101.6 0.336172C103.923 0.373996 106.263 0.460769 108.595 0.652114C108.649 0.646574 108.704 0.641587 108.759 0.636601C108.814 0.631574 108.87 0.62655 108.924 0.620964C112.457 0.282255 115.984 0.461354 119.514 0.640527C120.368 0.683918 121.223 0.727314 122.078 0.76336C126.256 0.939131 130.668 1.37077 134.42 3.37077C134.902 3.62752 135.311 3.91944 135.66 4.24472C136.149 4.31347 136.615 4.45209 137.034 4.68504C138.241 4.44096 139.59 4.98207 139.875 6.38356C140.291 8.43717 140.449 10.5084 140.2 12.5911C140.197 12.6173 140.194 12.6442 140.191 12.6718C140.188 12.6956 140.185 12.7199 140.182 12.7447C140.687 14.6768 140.653 16.7869 140.234 18.6926C140.411 21.1004 140.511 23.5151 140.525 25.9259C140.528 26.2907 140.533 26.6569 140.538 27.0239C140.557 28.3346 140.576 29.655 140.454 30.954C140.318 32.4158 139.716 33.5725 138.769 34.6828C138.591 34.8919 138.29 34.9266 138.039 34.8759C137.974 34.8628 137.917 34.845 137.866 34.8238C138.333 35.8253 138.72 36.8766 139.099 37.9051C139.183 38.1331 139.267 38.3601 139.35 38.5851C140.085 40.5564 140.797 42.5611 141.301 44.6036C142.325 48.7217 142.999 52.9182 143.391 57.1433ZM72.4894 75.7809C72.2781 75.6351 72.0651 75.4881 71.8346 75.3789C71.8057 75.3653 70.5864 74.9695 70.8222 75.4924C70.9023 75.6659 70.6932 75.8595 70.5441 75.706C70.1214 75.2766 70.3572 74.7604 70.7599 74.3777C71.4873 73.6857 72.5733 73.8457 73.4655 74.0106C74.707 74.2397 75.9129 74.7826 76.9586 75.479C78.0844 76.2288 79.475 77.2679 79.6975 78.6896C79.9 79.9956 78.6006 81.4352 77.2634 80.5608C76.5399 80.0867 76.0333 79.382 75.5249 78.6749C75.1624 78.1707 74.799 77.6653 74.3554 77.2412C73.8324 76.7428 73.2672 76.3045 72.6689 75.9038C72.609 75.8635 72.5492 75.8223 72.4894 75.7809Z" fill="#1D3451"/>
<path fill-rule="evenodd" clip-rule="evenodd" d="M122.381 92.9253C120.742 93.4 118.983 93.4425 117.312 92.9522C115.797 92.5075 114.241 91.5289 113.125 90.2338C112.135 89.0834 111.493 87.6854 111.518 86.1931C111.521 86.0227 111.582 85.8804 111.676 85.77C111.777 85.6511 111.918 85.5695 112.069 85.5341C112.224 85.4976 112.388 85.5106 112.528 85.5741C112.654 85.6315 112.763 85.7292 112.831 85.8719C113.002 86.097 113.173 86.3189 113.344 86.5345C114.722 88.2362 116.057 89.5079 118.129 89.9641C119.253 90.2116 120.376 90.1018 121.407 89.7242C122.51 89.3199 123.507 88.6091 124.288 87.6995C124.641 87.2884 125.058 87.1207 125.466 87.1178C125.927 87.1146 126.384 87.3293 126.728 87.6723C127.066 88.0095 127.292 88.4678 127.313 88.9471C127.331 89.3678 127.194 89.8072 126.829 90.1993C125.626 91.4908 124.067 92.4369 122.381 92.9253ZM122.33 71.6123C124.01 72.6335 126.57 75.0149 124.763 77.5467C122.635 79.7791 119.572 77.2195 118.063 76.0619C116.663 75.1648 115.091 77.4722 116.389 78.5197C127.297 86.5952 131.723 71.8793 123.18 70.4115C122.239 70.2498 121.89 71.2963 122.33 71.6123ZM106.613 67.1185C106.073 66.7732 105.438 66.6546 104.734 66.9749C104.184 67.2251 103.219 68.0591 102.548 69.1555C102.088 69.9056 101.762 70.7855 101.83 71.7021C101.846 71.915 101.767 72.0719 101.643 72.188C101.545 72.2796 101.404 72.347 101.238 72.368C101.096 72.3859 100.938 72.3698 100.81 72.3297C100.566 72.2534 100.436 72.0949 100.388 71.9655C99.9175 70.7169 100.12 69.3234 100.647 68.0663C101.358 66.3698 102.65 64.9487 103.496 64.4905C104.944 63.7062 106.652 63.6701 108.102 64.4691C109.336 65.1492 110.108 66.2471 110.875 67.3662C111.039 67.6041 111.201 67.8403 111.368 68.0723C111.703 68.5372 111.737 68.9983 111.607 69.3936C111.463 69.8316 111.096 70.2013 110.637 70.3947C110.213 70.5735 109.721 70.5987 109.285 70.415C108.917 70.2598 108.58 69.9573 108.366 69.444C108.006 68.5795 107.407 67.6257 106.613 67.1185ZM134.039 69.0418C133.67 69.2345 133.38 69.2926 132.97 69.1697C132.743 69.1016 132.519 68.971 132.343 68.7954C132.169 68.6215 132.044 68.4051 131.995 68.1651C131.875 67.5727 131.551 67.0183 131.089 66.6568C130.694 66.3478 130.196 66.1841 129.643 66.2765C129.047 66.376 128.479 66.7585 128.087 67.2094C127.957 67.3603 127.854 67.5317 127.751 67.7019C127.558 68.0202 127.371 68.3161 127.105 68.5499C127.004 68.6388 126.852 68.7004 126.705 68.7004C126.645 68.7004 126.585 68.6907 126.527 68.6727C125.933 68.0769 125.819 67.625 125.838 67.1767C125.858 66.7066 126.044 66.2306 126.343 65.7866C127.046 64.7449 128.38 63.8908 129.28 63.6973C130.512 63.4324 131.737 63.7504 132.718 64.4389C133.728 65.1473 134.477 66.2472 134.71 67.4868C134.766 67.7853 134.742 68.1075 134.628 68.3869C134.517 68.6599 134.324 68.8938 134.039 69.0418ZM109.332 56.0122C108.592 56.733 107.717 56.8446 106.831 56.9439C106.339 56.9996 105.946 57.0445 105.559 57.1318C104.497 57.3716 103.446 57.7329 102.488 58.2533C101.486 58.7972 100.394 59.4532 99.6088 60.2936C99.422 60.4936 99.2459 60.7034 99.0696 60.9137C98.9089 61.1055 98.754 61.2901 98.5908 61.4681C98.4034 61.6726 98.2254 61.8868 98.0483 62.1006C97.9388 62.2809 97.9172 62.3253 97.8952 62.3714C97.862 62.4408 97.8234 62.5185 97.7793 62.6018C97.719 62.7159 97.6483 62.8407 97.5742 62.954C97.451 63.1609 97.3849 63.2179 97.3278 63.2434C97.233 63.2856 97.1431 63.3064 97.0559 63.2952C96.9741 63.2846 96.8971 63.2453 96.821 63.181C96.4412 62.8601 96.3291 62.3335 96.3406 61.7745C96.3581 60.9262 96.6709 59.9869 96.9594 59.4096C97.6301 58.068 98.5602 56.6733 99.6786 55.6721C100.955 54.5291 102.351 53.6638 103.955 53.0676C104.951 52.697 106.105 52.3567 107.191 52.3997C107.973 52.4307 108.719 52.663 109.335 53.2431C109.713 53.5993 109.895 54.1059 109.895 54.6121C109.895 55.1284 109.706 55.6478 109.332 56.0122ZM135.544 62.6125C135.497 62.6896 135.432 62.7427 135.359 62.7746C135.283 62.8081 135.199 62.8177 135.117 62.804C135.036 62.7904 134.959 62.7536 134.898 62.6975C134.84 62.6437 134.795 62.5724 134.775 62.485C134.284 60.3278 133.33 58.7228 131.295 57.6878C130.293 57.1787 129.142 56.8552 128.052 56.5973C127.735 56.5223 127.4 56.4737 127.063 56.4245C126.007 56.2703 124.943 56.0936 124.254 55.2397C123.839 54.7254 123.665 54.0676 123.764 53.466C123.856 52.8996 124.187 52.3802 124.789 52.069C126.287 51.2945 128.148 52.0545 129.661 52.7019C129.773 52.7499 129.883 52.797 129.991 52.8425C131.471 53.4669 132.82 54.2912 133.929 55.4699C134.809 56.405 135.624 57.7874 135.952 59.2095C136.226 60.3926 136.161 61.6005 135.544 62.6125Z" fill="#1D3451"/>
<path fill-rule="evenodd" clip-rule="evenodd" d="M136.297 66.7936C135.764 68.2436 134.951 69.7531 133.958 70.9734C129.938 74.3708 126.032 72.4897 124.049 67.8853C123.295 64.6313 125.296 61.1262 127.416 58.7325C130.478 55.6696 135.475 57.2771 136.883 60.9182C136.968 61.39 137.02 61.8606 137.045 62.3297C137.015 63.8541 136.831 65.157 136.297 66.6052M97.6588 63.8694C102.954 57.5829 112.861 57.2467 112.609 66.9223C111.471 79.1695 92.3157 76.1634 97.6588 63.8694ZM137.963 58.6251C137.777 58.3114 137.571 58.0079 137.347 57.7176C137.264 57.6682 137.216 57.2304 136.91 57.198C132.828 52.7028 125.656 55.2532 123.064 59.7324C122.591 60.2987 122.205 60.9617 121.92 61.6622C119.367 61.1948 116.39 61.2856 114.015 62.2482C111.66 56.1114 104.531 55.5635 99.8331 58.1856C96.9111 59.6199 95.0163 62.6237 92.1745 64.2737C85.4939 64.7536 78.3241 63.2597 71.7641 64.9322C66.5905 66.0057 70.9154 68.6202 71.783 66.8754C77.9678 65.0516 85.2952 66.5928 91.7167 66.1819C92.3844 67.3091 93.6649 68.2316 94.941 68.1922C96.3193 80.386 114.137 78.364 114.751 67.5245C115.448 66.4244 116.316 65.3716 117.557 64.6861C118.032 64.588 118.491 64.4604 118.91 64.263C119.627 64.162 120.732 64.4653 121.391 65.0611C123.651 78.5916 136.668 77.0158 138.994 65.1624C139.04 65.1153 139.17 64.9386 139.269 64.6551C140.065 63.6043 142.014 63.2137 141.703 61.4399C141.426 59.6657 139.181 59.6868 137.963 58.6251Z" fill="#5900B8"/>
</svg>
