<svg width="71" height="64" viewBox="0 0 71 64" fill="none" xmlns="http://www.w3.org/2000/svg">
<g clip-path="url(#clip0_239_976)">
<path d="M70.2387 3.89932C70.2244 3.87076 70.2081 3.84219 70.1938 3.81567C70.1693 3.77282 70.1469 3.73201 70.1367 3.69936C69.5266 1.43445 67.8412 0.0877399 65.513 0.00408093C65.3702 0 65.2294 0 65.0865 0H58.7876C40.956 0 23.1224 0 5.28874 0.00816185C4.55825 0.00816185 3.98488 0.0693757 3.48497 0.199965C1.4241 0.734567 0.0263832 2.5465 0.0100595 4.70939C-0.00422374 6.5458 -0.000142816 8.41283 0.00189765 10.2166C0.00189765 10.9736 0.00393811 11.7286 0.00393811 12.4836V20.9882C0.00393811 33.5432 0.00393811 46.0961 0.00393811 58.6511C0.00393811 61.0323 1.33636 62.8667 3.48089 63.438C3.95631 63.5645 4.495 63.6298 5.08265 63.6298C18.1743 63.6359 31.0373 63.638 43.072 63.638C50.8339 63.638 58.253 63.638 65.162 63.638C67.7881 63.638 69.1654 62.5769 70.2448 59.7223L70.2571 59.6876V3.94217L70.2367 3.89932H70.2387ZM3.16258 4.57472C3.17482 3.91565 3.67881 3.35248 4.38481 3.20761C4.67252 3.14843 4.98471 3.14027 5.22344 3.14027C16.095 3.14027 26.9666 3.13823 37.8402 3.13823H65.0192C65.615 3.13823 66.2292 3.13823 66.6149 3.61162C66.9087 3.97482 67.0821 4.34619 67.0903 4.62777C67.1291 5.99284 67.125 7.33342 67.1189 8.75154C67.1189 9.18412 67.1148 9.6167 67.1148 10.0534H3.15033C3.15033 9.56773 3.14829 9.08414 3.14625 8.60259C3.14217 7.28037 3.13605 5.91326 3.16258 4.57676V4.57472ZM67.1229 13.2773V21.2616C67.1229 33.6697 67.1229 46.0777 67.1229 58.4858C67.1229 59.9366 66.5496 60.5038 65.0763 60.5038C45.1165 60.5038 25.1588 60.5038 5.201 60.5038C3.68085 60.5038 3.14217 59.961 3.14217 58.4307V13.2773H67.125H67.1229Z" fill="#5900B8"/>
<path d="M8.30461 47.1777C8.56171 47.2123 8.82085 47.2103 9.07183 47.2123H9.14937C11.9672 47.2123 14.7851 47.2123 17.605 47.2123H23.249C24.4243 47.2123 25.5996 47.2123 26.7769 47.2123C29.0622 47.2123 31.3455 47.2123 33.6308 47.2083C34.749 47.2083 35.455 46.6186 35.4734 45.6738C35.4815 45.2535 35.3428 44.8862 35.0734 44.6087C34.7409 44.2659 34.2369 44.0823 33.6104 44.0741C33.2921 44.07 32.9718 44.0721 32.631 44.0741H32.3249V24.7264C32.3249 23.0308 31.8556 22.5676 30.1376 22.5676H29.4724C27.8074 22.5676 26.1423 22.5676 24.4794 22.5676C22.9102 22.5676 22.4083 23.0716 22.4063 24.6387C22.4063 29.2603 22.4063 33.884 22.4063 38.5057V44.0231H19.3537V40.3972C19.3537 38.0221 19.3537 35.649 19.3537 33.2739C19.3537 31.8375 18.7865 31.2763 17.3377 31.2702C15.0647 31.2641 13.1793 31.2641 11.4041 31.2702C10.0084 31.2763 9.43911 31.8497 9.43707 33.2515C9.43707 35.6388 9.43707 38.0241 9.43707 40.4115V44.0455C9.34117 44.0517 9.24731 44.0557 9.15549 44.0598C8.82289 44.0741 8.50662 44.0884 8.19443 44.1476C7.44762 44.2904 6.92526 44.9801 6.97831 45.7534C7.02932 46.4941 7.57821 47.0797 8.31278 47.1777H8.30461ZM12.6059 44.0272V34.4492H16.1686V44.0272H12.6059ZM29.1296 25.7405V44.0251H25.5792V25.7405H29.1296Z" fill="#5900B8"/>
<path d="M51.7012 39.4197H51.7399C57.6144 39.4197 62.4197 34.6552 62.4585 28.7807C62.4769 25.9261 61.3709 23.2286 59.3447 21.1861C57.3124 19.1395 54.615 18.0112 51.7481 18.0071H51.7399C45.8797 18.0071 41.0826 22.7695 41.0459 28.6277C41.0275 31.517 42.1273 34.2288 44.1413 36.2611C46.147 38.2872 48.8323 39.4075 51.7032 39.4177L51.7012 39.4197ZM53.3213 22.3798V21.3412C55.6984 21.884 57.3757 23.1613 58.4449 25.2405C59.7324 27.7462 59.6182 30.2437 58.0899 32.8657L57.3635 32.1373C56.0106 30.7824 54.7313 29.501 53.4437 28.1992C53.3825 28.138 53.3295 28.0115 53.3295 27.9237C53.3213 26.0955 53.3213 24.2897 53.3213 22.3778V22.3798ZM50.1831 21.3779V23.3286C50.1831 23.802 50.1851 24.2774 50.1872 24.7508C50.1933 25.8914 50.1974 27.0708 50.1708 28.2278C50.1525 29.0256 50.3994 29.6296 50.9707 30.1846C52.1888 31.366 53.407 32.5882 54.5844 33.7717C55.0006 34.1879 55.4148 34.6062 55.8311 35.0225C54.0314 36.5733 50.4443 36.7222 48.01 35.3102C45.0003 33.5636 43.5536 30.1662 44.4065 26.8545C45.1329 24.0326 47.7427 21.5799 50.181 21.3779H50.1831Z" fill="#5900B8"/>
<path d="M60.3446 51.7725H44.2719H15.5463H15.3769C15.1831 51.7705 14.9831 51.7685 14.7831 51.7828C13.9547 51.8419 13.3569 52.4194 13.2977 53.2192C13.2385 54.0048 13.7731 54.6924 14.5709 54.8536C14.8403 54.9067 15.1137 54.9067 15.3565 54.9067C25.2079 54.9067 35.0572 54.9067 44.9085 54.9067C50.0566 54.9067 55.2088 54.9067 60.3569 54.9067C61.122 54.9067 61.6913 54.7251 62.0484 54.366C62.3157 54.0987 62.4504 53.7457 62.4483 53.3192C62.4463 52.6132 62.077 51.7705 60.3426 51.7705L60.3446 51.7725Z" fill="#5900B8"/>
<path d="M42.8395 47.2081C44.1577 47.2122 45.4758 47.2142 46.794 47.2142C47.5877 47.2142 48.3814 47.2142 49.1752 47.2142H51.7094H53.5336C55.8128 47.2142 58.092 47.2142 60.3732 47.2142C61.1466 47.2142 61.7159 47.0326 62.0689 46.6735C62.3321 46.4062 62.4606 46.0552 62.4525 45.6288C62.4402 44.9228 62.0627 44.0801 60.3345 44.0801C54.6048 44.0801 48.8752 44.0801 43.1456 44.0801H43.1191C42.8457 44.0801 42.5682 44.0801 42.2927 44.1331C41.4908 44.2902 40.9929 44.9554 41.0562 45.7859C41.1215 46.6735 41.7907 47.2061 42.8436 47.2101L42.8395 47.2081Z" fill="#5900B8"/>
<path d="M8.55966 51.785C7.70879 51.7625 7.00279 52.4175 6.97014 53.2766C6.9375 54.1193 7.60473 54.8436 8.4556 54.8906C8.48213 54.8906 8.50865 54.8926 8.53518 54.8926C8.91879 54.8926 9.30035 54.7396 9.59214 54.4641C9.90637 54.1682 10.09 53.7602 10.0941 53.3459C10.1023 52.5073 9.41258 51.8074 8.55966 51.785Z" fill="#5900B8"/>
<path d="M12.5733 8.30887C12.5855 8.30887 12.5998 8.30887 12.6121 8.30887C13.4568 8.30887 14.1424 7.66408 14.1771 6.82341C14.2118 5.98478 13.5364 5.24001 12.6998 5.1992C12.2897 5.18084 11.8755 5.33795 11.5592 5.63586C11.2429 5.93173 11.0593 6.33574 11.0531 6.73975C11.0409 7.59878 11.7081 8.28642 12.5712 8.30887H12.5733Z" fill="#5900B8"/>
<path d="M7.37231 8.30865C7.37231 8.30865 7.38455 8.30865 7.39271 8.30865C7.79876 8.30865 8.20278 8.13725 8.50476 7.83731C8.80675 7.53532 8.97815 7.12927 8.97407 6.72525C8.96591 5.90295 8.2293 5.17858 7.39679 5.19083C6.55408 5.19695 5.86236 5.89479 5.85624 6.74566C5.85012 7.61082 6.51735 8.29641 7.37231 8.30865Z" fill="#5900B8"/>
<path d="M17.9642 8.30473H17.9806C18.8294 8.30473 19.5027 7.63954 19.517 6.78255C19.5313 5.92555 18.8682 5.23792 18.0071 5.21751C17.1542 5.20323 16.4298 5.86026 16.3972 6.69481C16.3808 7.09066 16.5379 7.49467 16.8297 7.80074C17.1317 8.11701 17.5459 8.30065 17.9663 8.30473H17.9642Z" fill="#5900B8"/>
</g>
<defs>
<clipPath id="clip0_239_976">
<rect width="70.2613" height="63.64" fill="white"/>
</clipPath>
</defs>
</svg>
