<svg width="25" height="24" viewBox="0 0 25 24" fill="none" xmlns="http://www.w3.org/2000/svg">
<g clip-path="url(#clip0_346_467)">
<path d="M9.98633 18.9999C4.98633 20.4999 4.98633 16.4999 2.98633 15.9999M16.9863 21.9999V18.1299C17.0238 17.6531 16.9594 17.1737 16.7973 16.7237C16.6353 16.2737 16.3793 15.8634 16.0463 15.5199C19.1863 15.1699 22.4863 13.9799 22.4863 8.51994C22.4861 7.12376 21.949 5.78114 20.9863 4.76994C21.4422 3.54844 21.41 2.19829 20.8963 0.999938C20.8963 0.999938 19.7163 0.649938 16.9863 2.47994C14.6943 1.85876 12.2783 1.85876 9.98633 2.47994C7.25633 0.649938 6.07633 0.999938 6.07633 0.999938C5.5627 2.19829 5.53047 3.54844 5.98633 4.76994C5.01646 5.78864 4.47885 7.1434 4.48633 8.54994C4.48633 13.9699 7.78633 15.1599 10.9263 15.5499C10.5973 15.8899 10.3436 16.2953 10.1816 16.7399C10.0197 17.1844 9.95314 17.658 9.98633 18.1299V21.9999" stroke="#1D3451" stroke-width="2" stroke-linecap="round" stroke-linejoin="round"/>
</g>
<defs>
<clipPath id="clip0_346_467">
<rect width="24" height="24" fill="white" transform="translate(0.986328)"/>
</clipPath>
</defs>
</svg>
