<svg width="25" height="24" viewBox="0 0 25 24" fill="none" xmlns="http://www.w3.org/2000/svg">
<path d="M17.9863 2H7.98633C5.2249 2 2.98633 4.23858 2.98633 7V17C2.98633 19.7614 5.2249 22 7.98633 22H17.9863C20.7478 22 22.9863 19.7614 22.9863 17V7C22.9863 4.23858 20.7478 2 17.9863 2Z" stroke="#1D3451" stroke-width="2" stroke-linecap="round" stroke-linejoin="round"/>
<path d="M16.9863 11.3701C17.1097 12.2023 16.9675 13.0523 16.58 13.7991C16.1925 14.5459 15.5794 15.1515 14.8279 15.5297C14.0764 15.908 13.2247 16.0397 12.3941 15.906C11.5634 15.7723 10.796 15.3801 10.2011 14.7852C9.6062 14.1903 9.21401 13.4229 9.08035 12.5923C8.94668 11.7616 9.07834 10.91 9.45661 10.1584C9.83487 9.40691 10.4405 8.7938 11.1873 8.4063C11.9341 8.0188 12.784 7.87665 13.6163 8.00006C14.4652 8.12594 15.2511 8.52152 15.858 9.12836C16.4648 9.73521 16.8604 10.5211 16.9863 11.3701Z" stroke="#1D3451" stroke-width="2" stroke-linecap="round" stroke-linejoin="round"/>
<path d="M18.4863 6.5H18.4963" stroke="#1D3451" stroke-width="2" stroke-linecap="round" stroke-linejoin="round"/>
</svg>
