<svg width="25" height="24" viewBox="0 0 25 24" fill="none" xmlns="http://www.w3.org/2000/svg">
<path d="M16.9863 8C18.5776 8 20.1038 8.63214 21.229 9.75736C22.3542 10.8826 22.9863 12.4087 22.9863 14V21H18.9863V14C18.9863 13.4696 18.7756 12.9609 18.4005 12.5858C18.0255 12.2107 17.5168 12 16.9863 12C16.4559 12 15.9472 12.2107 15.5721 12.5858C15.197 12.9609 14.9863 13.4696 14.9863 14V21H10.9863V14C10.9863 12.4087 11.6185 10.8826 12.7437 9.75736C13.8689 8.63214 15.395 8 16.9863 8Z" stroke="#1D3451" stroke-width="2" stroke-linecap="round" stroke-linejoin="round"/>
<path d="M6.98633 9H2.98633V21H6.98633V9Z" stroke="#1D3451" stroke-width="2" stroke-linecap="round" stroke-linejoin="round"/>
<path d="M4.98633 6C6.0909 6 6.98633 5.10457 6.98633 4C6.98633 2.89543 6.0909 2 4.98633 2C3.88176 2 2.98633 2.89543 2.98633 4C2.98633 5.10457 3.88176 6 4.98633 6Z" stroke="#1D3451" stroke-width="2" stroke-linecap="round" stroke-linejoin="round"/>
</svg>
