<svg width="64" height="37" viewBox="0 0 64 37" fill="none" xmlns="http://www.w3.org/2000/svg">
<g clip-path="url(#clip0_239_979)">
<path d="M11.5418 31.8782C16.7629 27.4043 21.984 22.9304 27.2881 18.3846C22.0154 13.8645 16.774 9.37404 11.5345 4.88169C11.457 4.90383 11.3795 4.92597 11.3039 4.94811C11.3039 5.83182 11.3186 6.71553 11.3002 7.59924C11.2817 8.48664 10.8463 9.04011 10.1268 9.14896C9.30951 9.27257 8.54757 8.76337 8.50329 7.94239C8.44794 6.93507 8.40551 5.90562 8.54572 4.91121C8.96267 1.96121 11.2706 0.00930101 14.2815 0.0056112C22.9839 -0.00545823 31.6864 0.00192139 40.3888 0.00192139C46.1209 0.00192139 51.853 7.64856e-05 57.5851 0.00192139C61.2694 0.0037663 63.6309 2.35418 63.6346 6.0366C63.6401 14.276 63.642 22.5171 63.6346 30.7565C63.6309 34.3965 61.2602 36.7617 57.6257 36.7617C43.2595 36.7653 28.895 36.7653 14.5288 36.7617C10.8555 36.7617 8.47562 34.3836 8.47008 30.7233C8.47008 30.2178 8.46455 29.7104 8.47008 29.2049C8.483 28.2124 9.02355 27.598 9.87959 27.5962C10.7338 27.5925 11.278 28.1902 11.2983 29.1957C11.3149 30.0628 11.302 30.9281 11.302 31.7952L11.54 31.8763L11.5418 31.8782ZM13.5805 2.87075C13.8627 3.13088 14.0066 3.27294 14.1616 3.40577C21.0523 9.30024 27.9412 15.1966 34.8338 21.0873C35.7673 21.8843 36.3724 21.8733 37.3226 21.0615C44.2133 15.167 51.1021 9.27072 57.9892 3.37256C58.1405 3.24342 58.2807 3.10136 58.5297 2.8689H13.5805V2.87075ZM13.5676 33.8725H58.5556C53.1648 29.251 47.9142 24.7476 42.6396 20.2258C41.3002 21.3862 40.0327 22.5208 38.7265 23.6112C37.2414 24.8491 35.2729 24.9395 33.7324 23.8824C33.5239 23.7403 33.3339 23.5706 33.1438 23.4045C31.9299 22.3548 30.7196 21.305 29.4762 20.2276C24.1794 24.7716 18.9325 29.2713 13.5676 33.8744V33.8725ZM60.7362 4.7544C55.362 9.36112 50.1188 13.8535 44.8332 18.3846C50.1446 22.9359 55.3768 27.4191 60.7362 32.011V4.7544Z" fill="#5900B8"/>
<path d="M7.72082 23.3453C5.67298 23.3453 3.62698 23.3564 1.57913 23.3398C0.49433 23.3306 -0.156922 22.5834 0.0312587 21.6185C0.165937 20.9248 0.739702 20.5005 1.63264 20.495C3.40375 20.4802 5.17485 20.4894 6.94596 20.4894C9.24656 20.4894 11.5472 20.4839 13.8459 20.4931C14.8034 20.4968 15.4122 20.9562 15.5137 21.7052C15.6428 22.6387 14.9897 23.3343 13.9308 23.3416C11.8608 23.3564 9.79081 23.3453 7.72082 23.3453Z" fill="#5900B8"/>
<path d="M9.85157 13.4217C11.1854 13.4217 12.5211 13.4144 13.855 13.4236C14.8955 13.431 15.5283 13.9789 15.5265 14.8479C15.5265 15.715 14.8992 16.2684 13.8513 16.274C11.2057 16.285 8.56014 16.285 5.9127 16.274C4.87955 16.2703 4.22461 15.6947 4.22461 14.846C4.22461 13.9992 4.89062 13.431 5.91454 13.4254C7.22627 13.4162 8.538 13.4236 9.84972 13.4236L9.85157 13.4217Z" fill="#5900B8"/>
</g>
<defs>
<clipPath id="clip0_239_979">
<rect width="63.64" height="36.7653" fill="white"/>
</clipPath>
</defs>
</svg>
