<svg width="64" height="64" viewBox="0 0 64 64" fill="none" xmlns="http://www.w3.org/2000/svg">
<g clip-path="url(#clip0_239_868)">
<path d="M1.56814 63.8182C0.491902 63.3237 0.163906 62.4704 0.181843 61.3147C0.233092 58.168 0.19978 55.0213 0.19978 51.8746C0.19978 51.0802 0.517527 50.4652 1.22989 50.1013C1.89613 49.758 2.55725 49.8271 3.16199 50.2628C3.72574 50.6702 3.9333 51.2519 3.93074 51.9386C3.92305 54.4037 3.92817 56.8663 3.92817 59.3313C3.92817 59.5568 3.92817 59.7823 3.92817 60.0924C4.18186 60.0924 4.39967 60.0924 4.61748 60.0924C7.08001 60.0924 9.54511 60.0924 12.0076 60.0924C13.1249 60.0924 13.8834 60.6382 14.0884 61.5761C14.2831 62.4704 13.8398 63.2263 12.8251 63.7311C12.7918 63.7465 12.7738 63.79 12.7482 63.8208H1.56814V63.8182Z" fill="#5900B8"/>
<path d="M51.2571 63.8183C50.1245 63.1597 49.6991 62.4192 49.9323 61.5146C50.1885 60.5281 50.9137 60.0899 52.3051 60.0899C54.8676 60.0899 57.4326 60.0899 60.0771 60.0899V59.3955C60.0771 56.9329 60.0771 54.4678 60.0771 52.0053C60.0771 50.8932 60.6255 50.1296 61.5608 49.9271C62.4576 49.7324 63.211 50.1757 63.7132 51.1904C63.7286 51.2238 63.7722 51.2417 63.8029 51.2673V62.4499C63.5057 63.0649 63.0495 63.5185 62.4371 63.8157H51.2571V63.8183Z" fill="#5900B8"/>
<path d="M63.8028 12.7508C63.1391 13.886 62.4036 14.3088 61.4991 14.0756C60.51 13.8194 60.0744 13.0942 60.0744 11.7002C60.0744 9.13517 60.0744 6.5727 60.0744 3.92823C59.8156 3.92823 59.5952 3.92823 59.3748 3.92823C57.3248 3.92823 55.2774 3.92823 53.2274 3.92823C51.9641 3.92823 51.1262 3.17999 51.1262 2.06532C51.1262 0.950643 51.9616 0.202402 53.2274 0.202402C55.918 0.199839 58.6112 0.238276 61.2992 0.184464C62.4549 0.161402 63.3082 0.491961 63.8002 1.5682V12.7508H63.8028Z" fill="#5900B8"/>
<path d="M62.437 63.8182C63.0494 63.5209 63.5056 63.0648 63.8028 62.4524V63.8182H62.437Z" fill="white"/>
<path d="M48.9097 37.6246C50.642 37.6246 52.3358 37.6246 54.0296 37.6246C55.6798 37.6246 56.3486 38.3036 56.3486 39.9718C56.3486 44.6919 56.3486 49.4145 56.3486 54.1346C56.3486 55.6669 55.6465 56.3639 54.1064 56.3639C49.3454 56.3639 44.5843 56.3639 39.8232 56.3639C38.337 56.3639 37.6144 55.6439 37.6144 54.1551C37.6144 49.3709 37.6118 44.5894 37.6144 39.8052C37.6144 38.3651 38.3575 37.6297 39.8002 37.6246C41.3325 37.6194 42.8649 37.6246 44.3947 37.6246C44.6176 37.6246 44.838 37.6246 45.0968 37.6246V33.8731C44.3614 33.8731 43.6259 33.8962 42.8931 33.868C42.0731 33.8347 41.4837 33.4221 41.1865 32.6483C40.9072 31.9154 41.0353 31.1953 41.6272 30.7264C42.0295 30.4087 42.624 30.1832 43.1365 30.1729C46.0552 30.1217 48.9738 30.1473 51.8925 30.1473C52.1154 30.1473 52.3358 30.1473 52.5869 30.1473V26.3958H51.8284C47.8745 26.3958 43.9206 26.3958 39.9667 26.3958C38.3037 26.3958 37.6118 25.7142 37.6118 24.0742C37.6118 19.3747 37.6118 14.6725 37.6118 9.97297C37.6118 8.3458 38.2934 7.65649 39.9001 7.65649C44.6407 7.65649 49.3812 7.65649 54.1218 7.65649C55.6542 7.65649 56.346 8.35605 56.346 9.90122C56.346 17.1479 56.346 24.3945 56.346 31.6438C56.346 33.1761 55.6439 33.8731 54.1064 33.8731C52.3896 33.8731 50.6753 33.8731 48.9072 33.8731V37.6246H48.9097ZM41.3838 11.4054V22.6316H52.5715V11.4054H41.3838ZM52.5869 52.6176V41.4068H41.3889V52.6176H52.5869Z" fill="#5900B8"/>
<path d="M30.1038 22.6905V15.2133H26.4113C26.4113 15.8001 26.4164 16.3741 26.4113 16.9455C26.3985 18.137 25.6041 18.9801 24.5176 18.9596C23.4567 18.9416 22.6906 18.1088 22.688 16.9429C22.6829 14.5188 22.6829 12.0973 22.688 9.67319C22.6906 8.48165 23.4901 7.63859 24.5765 7.65653C25.64 7.67447 26.3985 8.50471 26.4113 9.66807C26.4164 10.2267 26.4113 10.7827 26.4113 11.3977H30.1371C30.1371 10.8289 30.132 10.2574 30.1371 9.68601C30.1473 8.48933 30.9289 7.64628 32.0179 7.65653C33.0814 7.66678 33.8604 8.49702 33.8604 9.65782C33.8655 14.5649 33.8655 19.4746 33.8604 24.3818C33.8604 25.6604 33.0916 26.4112 31.7976 26.4164C30.0218 26.4215 28.2486 26.4164 26.4395 26.4164V30.1448C26.6521 30.1448 26.8699 30.1448 27.0878 30.1448C29.7989 30.1448 32.5125 30.1448 35.2236 30.1448C36.4792 30.1448 37.3325 30.9084 37.3299 32.0102C37.3274 33.1121 36.4741 33.8655 35.2159 33.8706C34.7854 33.8706 34.3549 33.8706 33.8604 33.8706C33.8604 34.1448 33.8604 34.3652 33.8604 34.5881C33.8604 37.0122 33.8629 39.4337 33.8604 41.8578C33.8578 43.1852 33.107 43.9309 31.7796 43.936C30.6214 43.9411 29.4606 43.9437 28.3024 43.936C27.1134 43.9283 26.2703 43.1314 26.2883 42.0423C26.3062 40.9814 27.139 40.2204 28.3024 40.2101C28.8815 40.205 29.4606 40.2101 30.0884 40.2101V33.9142H18.957C18.957 34.5394 18.9647 35.1544 18.957 35.7694C18.9391 36.9097 18.1268 37.7399 17.0634 37.722C16.023 37.704 15.2517 36.8815 15.2338 35.7668C15.2261 35.1672 15.2338 34.5676 15.2338 33.9193H11.3824C11.3824 34.5035 11.3875 35.0955 11.3824 35.6874C11.3721 36.8866 10.5931 37.7297 9.50666 37.722C8.42273 37.7143 7.66424 36.8738 7.65912 35.6618C7.65399 34.501 7.65399 33.3427 7.65912 32.1819C7.6668 30.9007 8.4253 30.1473 9.71678 30.1448C13.7962 30.1422 17.8731 30.1448 21.9526 30.1448C22.1755 30.1448 22.3984 30.1448 22.6547 30.1448V26.4164C21.786 26.4164 20.9071 26.4343 20.0256 26.4112C19.0621 26.3856 18.3036 25.6886 18.2062 24.7815C18.1037 23.8308 18.6495 23.0108 19.5772 22.7649C19.8308 22.6982 20.1076 22.6931 20.3741 22.6905C23.3773 22.6854 26.378 22.688 29.3812 22.688H30.1063L30.1038 22.6905Z" fill="#5900B8"/>
<path d="M7.65405 48.9073C7.65405 47.1084 7.64893 45.307 7.65405 43.5082C7.65918 42.2192 8.40998 41.4556 9.69121 41.4531C13.312 41.4479 16.9302 41.4479 20.551 41.4531C21.7912 41.4531 22.5574 42.2244 22.5574 43.4749C22.5625 47.0956 22.5625 50.7164 22.5574 54.3372C22.5574 55.5851 21.7912 56.3589 20.551 56.3615C16.9097 56.3692 13.271 56.3692 9.62971 56.3615C8.42792 56.3589 7.65918 55.58 7.65405 54.3705C7.64636 52.5511 7.65405 50.7292 7.65405 48.9098V48.9073ZM11.4081 52.5921H18.7854V45.2122H11.4081V52.5921Z" fill="#5900B8"/>
<path d="M13.2914 18.8392C12.0922 18.8392 10.893 18.8443 9.69372 18.8392C8.41248 18.8315 7.65655 18.073 7.65399 16.7867C7.64887 14.4292 7.64887 12.0717 7.65399 9.71425C7.65655 8.42533 8.40992 7.66171 9.68859 7.65915C12.0666 7.65402 14.4445 7.65146 16.8225 7.65915C18.0627 7.66171 18.8264 8.43045 18.8315 9.67837C18.8392 12.0563 18.8392 14.4343 18.8315 16.8123C18.8289 18.0602 18.0653 18.829 16.8276 18.8366C15.6489 18.8443 14.4702 18.8366 13.2914 18.8366V18.8392ZM15.08 11.4285H11.4311V15.0775H15.08V11.4285Z" fill="#5900B8"/>
<path d="M3.92813 3.92822C3.92813 6.74181 3.93582 9.4529 3.92557 12.164C3.91788 13.581 2.63152 14.4984 1.3836 13.9885C0.640481 13.6835 0.215111 13.1044 0.209987 12.3126C0.192049 8.87635 0.189487 5.44008 0.209987 2.00637C0.217674 1.01213 1.00691 0.217764 1.99603 0.212639C5.42974 0.189577 8.86601 0.192139 12.2997 0.212639C13.3503 0.217764 14.1344 1.07875 14.1165 2.10118C14.0986 3.1236 13.3016 3.91797 12.228 3.92566C9.70393 3.94103 7.1799 3.93078 4.65331 3.93078C4.43037 3.93078 4.21 3.93078 3.923 3.93078L3.92813 3.92822Z" fill="#5900B8"/>
<path d="M30.1397 52.6357C30.1397 51.6004 30.1346 50.6498 30.1397 49.6991C30.1474 48.4998 30.9264 47.6594 32.0129 47.667C33.0968 47.6747 33.8579 48.5152 33.863 49.7247C33.8681 51.2571 33.8707 52.7894 33.863 54.3192C33.8579 55.603 33.0994 56.3564 31.8105 56.3615C30.6317 56.3666 29.4504 56.3692 28.2717 56.3615C27.1211 56.3513 26.2883 55.5646 26.2883 54.5012C26.2883 53.4377 27.1211 52.6511 28.2691 52.6382C28.8662 52.6306 29.4632 52.6382 30.1372 52.6382L30.1397 52.6357Z" fill="#5900B8"/>
<path d="M11.0469 26.4165C10.5292 26.4165 10.0116 26.4319 9.494 26.414C8.44595 26.3755 7.6439 25.5479 7.65415 24.5331C7.6644 23.544 8.45364 22.724 9.47094 22.6984C10.5267 22.6702 11.5824 22.6702 12.6382 22.6984C13.6503 22.7266 14.4473 23.5619 14.4549 24.5434C14.4626 25.5197 13.6683 26.3602 12.6612 26.4114C12.1231 26.437 11.585 26.4165 11.0469 26.4165Z" fill="#5900B8"/>
<path d="M47.0393 15.1133C48.0463 15.1158 48.8894 15.9589 48.8945 16.966C48.8996 17.9961 48.0258 18.8596 46.9957 18.8366C45.9912 18.8161 45.161 17.9576 45.1712 16.9531C45.1815 15.9461 46.0322 15.1107 47.0393 15.1133Z" fill="#5900B8"/>
<path d="M48.8944 47.0187C48.9072 48.0258 48.0796 48.8816 47.0725 48.9047C46.0449 48.9277 45.1686 48.0668 45.1711 47.0366C45.1737 46.0296 46.0168 45.1865 47.0238 45.1814C48.0309 45.1763 48.8816 46.0117 48.8944 47.0187Z" fill="#5900B8"/>
</g>
<defs>
<clipPath id="clip0_239_868">
<rect width="63.621" height="63.6364" fill="white" transform="translate(0.181885 0.181885)"/>
</clipPath>
</defs>
</svg>
