<svg width="24" height="24" viewBox="0 0 24 24" fill="none" xmlns="http://www.w3.org/2000/svg">
<path d="M19 3C17.355 3 16 4.35499 16 6C16 6.45986 16.1142 6.89194 16.3027 7.2832L12.5859 11H7.8125C7.39514 9.84267 6.29316 9 5 9C3.35499 9 2 10.355 2 12C2 13.645 3.35499 15 5 15C6.29316 15 7.39514 14.1573 7.8125 13H12.5859L16.3027 16.7168C16.1142 17.1081 16 17.5401 16 18C16 19.645 17.355 21 19 21C20.645 21 22 19.645 22 18C22 16.355 20.645 15 19 15C18.5401 15 18.1081 15.1142 17.7168 15.3027L14.4141 12L17.7168 8.69727C18.1081 8.88578 18.5401 9 19 9C20.645 9 22 7.64501 22 6C22 4.35499 20.645 3 19 3ZM19 5C19.5641 5 20 5.43587 20 6C20 6.56413 19.5641 7 19 7C18.4359 7 18 6.56413 18 6C18 5.43587 18.4359 5 19 5ZM5 11C5.56413 11 6 11.4359 6 12C6 12.5641 5.56413 13 5 13C4.43587 13 4 12.5641 4 12C4 11.4359 4.43587 11 5 11ZM19 17C19.5641 17 20 17.4359 20 18C20 18.5641 19.5641 19 19 19C18.4359 19 18 18.5641 18 18C18 17.4359 18.4359 17 19 17Z" fill="white"/>
</svg>
