<svg width="202" height="24" viewBox="0 0 202 24" fill="none" xmlns="http://www.w3.org/2000/svg">
<g clip-path="url(#clip0_346_465)">
<path d="M0.013927 11.3385C0.0225462 5.05086 5.11646 -0.0171944 11.4127 4.3845e-05C17.7866 0.0172821 22.7771 5.27496 22.7167 11.4807C22.6564 17.652 17.541 22.733 11.3438 22.6942C5.05613 22.6598 0.00530789 17.5917 0.013927 11.3385ZM12.9082 12.0625L12.9211 12.0712C12.6798 11.1877 12.4255 10.3085 12.2014 9.42508C12.1195 9.10186 12.0592 8.7614 12.0549 8.42956C12.0333 6.56352 12.0333 4.69748 12.0247 2.83143C12.0247 2.61595 12.0247 2.39617 12.0247 2.12466C10.8439 2.03416 9.74925 2.18069 8.646 2.52114C8.646 2.728 8.646 2.91331 8.646 3.09863C8.646 4.58974 8.65462 6.08516 8.64169 7.57627C8.64169 7.87794 8.59859 8.18392 8.51671 8.47697C8.07282 10.0586 7.6117 11.6359 7.15489 13.2175C6.64636 14.9758 6.13352 16.7341 5.63792 18.4924C5.37503 19.4276 5.8534 20.3197 6.75841 20.5782C7.01267 20.6515 7.2971 20.6515 7.5643 20.6515C10.1113 20.6558 12.6625 20.6515 15.2095 20.6515C15.3129 20.6515 15.412 20.6515 15.5155 20.6515C16.4463 20.6084 17.1445 19.9016 17.1445 18.9708C17.1445 18.7208 17.0884 18.4666 17.0195 18.2252C16.0886 14.9844 15.1491 11.7436 14.2269 8.50283C14.1321 8.16668 14.0804 7.80468 14.0761 7.4556C14.0588 5.99897 14.0674 4.53802 14.0674 3.07708V2.52545C13.5977 2.366 13.1667 2.24102 12.6539 2.24102C12.6539 2.4565 12.6539 2.6375 12.6539 2.82281C12.6539 3.96054 12.7013 5.09827 12.6453 6.23168C12.5548 8.05032 12.7573 9.81294 13.3951 11.5238C13.4641 11.7091 13.4598 11.9203 13.49 12.1186C13.3003 12.1013 13.1064 12.0841 12.9168 12.0668L12.9082 12.0625Z" fill="#1D3451"/>
<path d="M62.1235 7.83913C62.27 7.53746 62.4036 7.26595 62.5458 6.97721H65.7134V19.3414H62.4467C62.3303 19.1 62.2097 18.8415 62.0675 18.5484C61.9382 18.6217 61.8218 18.6777 61.7184 18.751C58.5896 20.9747 52.7631 19.7379 51.8796 14.4285C51.6383 12.9718 51.7633 11.5497 52.3839 10.2008C53.2889 8.23992 54.8403 7.07633 56.952 6.68416C58.7491 6.34801 60.4341 6.63675 61.9296 7.75293C61.9683 7.7831 62.0201 7.79603 62.1192 7.83913H62.1235ZM61.6753 13.1744C61.6753 11.5626 60.4945 10.343 58.9129 10.3257C57.3011 10.3128 56.0772 11.5324 56.0772 13.1571C56.0772 14.7862 57.2968 16.0187 58.8956 16.0101C60.4815 16.0015 61.671 14.7862 61.6753 13.1744Z" fill="#1D3451"/>
<path d="M115.924 6.51603C117.428 6.53327 118.833 6.86941 120.079 7.7184C122.229 9.18365 123.1 11.2781 122.893 13.8208C122.626 17.096 120.113 19.5482 116.441 19.7809C115.36 19.8498 114.304 19.7119 113.282 19.3499C110.628 18.4061 109.007 16.1048 108.969 13.239C108.921 9.86887 111.175 7.18832 114.511 6.66255C114.98 6.58929 115.454 6.56343 115.924 6.51172V6.51603ZM115.95 15.9411C117.536 15.9411 118.656 14.7689 118.639 13.1312C118.622 11.5194 117.497 10.3774 115.933 10.3774C114.368 10.3774 113.257 11.5281 113.252 13.1441C113.252 14.7947 114.355 15.9411 115.95 15.9411Z" fill="#1D3451"/>
<path d="M175.478 13.1787C175.474 16.6048 173.104 19.2681 169.695 19.7077C168.139 19.9102 166.644 19.7508 165.217 19.0914C162.519 17.8373 161.274 15.1611 161.563 12.4159C161.929 8.89065 164.73 6.71863 167.997 6.56349C169.005 6.51608 170.001 6.59796 170.966 6.91256C173.763 7.81757 175.487 10.2094 175.482 13.183L175.478 13.1787ZM168.518 15.9454C170.083 15.9454 171.199 14.7948 171.203 13.1787C171.203 11.5454 170.07 10.3731 168.492 10.3818C166.932 10.3904 165.812 11.5454 165.803 13.1528C165.795 14.7818 166.924 15.9454 168.518 15.9454Z" fill="#1D3451"/>
<path d="M50.7289 11.8297C47.8242 12.8856 44.9756 13.9242 42.0839 14.9757C42.1442 15.1007 42.1744 15.2084 42.239 15.2946C42.8079 16.0617 43.5577 16.4797 44.5274 16.3246C45.5315 16.1608 46.3762 15.6997 46.7641 14.6999C46.8933 14.3724 47.0743 14.2215 47.3803 14.1138C48.3758 13.769 49.3584 13.4027 50.3496 13.045C50.5048 12.989 50.6642 12.9416 50.8668 12.8769C50.9616 13.407 50.8926 13.894 50.7978 14.3637C50.285 16.9064 48.712 18.544 46.3202 19.4016C44.0059 20.2291 41.7908 20.0007 39.8213 18.4492C37.1279 16.3332 36.1496 11.7564 39.037 8.72681C41.1099 6.54617 44.6567 5.84371 47.2424 7.13658C49.1688 8.09762 50.2548 9.7094 50.7332 11.8383L50.7289 11.8297ZM45.9926 11.0324C45.204 9.85592 43.9327 9.68354 42.8423 10.1317C41.752 10.5799 41.1444 11.5841 41.3383 12.7218C42.8854 12.1615 44.4196 11.6013 45.997 11.0324H45.9926Z" fill="#1D3451"/>
<path d="M78.2715 6.9816H82.8957C83.7533 9.20103 84.6109 11.4205 85.4728 13.6399C85.5116 13.6399 85.5504 13.6399 85.5891 13.6399C86.3907 11.4205 87.1923 9.20103 87.9939 6.97729H92.5577C92.4974 7.14537 92.4543 7.28758 92.3939 7.42118C90.7089 11.2567 89.0411 15.1008 87.3302 18.9277C86.9294 19.8241 86.4554 20.6903 85.9253 21.5178C84.891 23.1339 83.3783 23.9613 81.4476 23.9958C80.8228 24.0087 80.1979 23.9958 79.4997 23.9958C79.4911 22.7805 79.4954 21.5867 79.4997 20.3671C79.685 20.3542 79.8186 20.337 79.9479 20.3327C80.2711 20.3283 80.5943 20.324 80.9176 20.3327C82.0639 20.3628 82.8138 19.8371 83.2232 18.7726C83.3395 18.4795 83.3352 18.2468 83.2059 17.9581C82.0251 15.3637 80.8572 12.765 79.685 10.1664C79.2799 9.26999 78.8748 8.3736 78.474 7.47721C78.4051 7.32637 78.3491 7.17554 78.2715 6.9816Z" fill="#1D3451"/>
<path d="M177.18 6.97713H180.137C180.326 7.36499 180.516 7.75716 180.723 8.18812C180.869 8.05883 180.994 7.94679 181.124 7.84336C182.77 6.51601 184.614 6.21434 186.575 6.94696C188.183 7.546 188.997 8.84749 189.32 10.4765C189.398 10.8557 189.432 11.2522 189.437 11.6401C189.445 14.0836 189.441 16.5271 189.441 18.9707C189.441 19.087 189.428 19.2034 189.42 19.3585H185.188C185.179 19.1991 185.166 19.0224 185.166 18.8457C185.166 16.7081 185.175 14.5706 185.157 12.433C185.157 12.015 185.088 11.5841 184.963 11.1876C184.774 10.5713 184.3 10.2653 183.658 10.2352C182.52 10.1791 181.705 10.8213 181.499 11.959C181.434 12.3081 181.412 12.6658 181.408 13.0235C181.399 14.9412 181.408 16.859 181.408 18.7767V19.3671H177.211C177.107 19.0267 177.073 7.77009 177.185 6.99006L177.18 6.97713Z" fill="#1D3451"/>
<path d="M131.055 6.99015H135.352C135.352 7.20132 135.352 7.39525 135.352 7.59349C135.352 9.62761 135.347 11.666 135.356 13.7002C135.356 14.0535 135.39 14.4155 135.49 14.7517C135.731 15.5446 136.36 15.9541 137.239 15.9454C138.071 15.9368 138.692 15.5059 138.916 14.7215C139.011 14.3854 139.054 14.0191 139.054 13.67C139.067 11.6359 139.058 9.59744 139.058 7.56332C139.058 7.38232 139.058 7.19701 139.058 6.99015H143.299C143.311 7.14098 143.333 7.27027 143.333 7.40387C143.333 9.62761 143.35 11.8513 143.324 14.0708C143.316 14.6569 143.238 15.2602 143.083 15.8248C142.631 17.4667 141.588 18.6346 140.01 19.2638C138.08 20.0309 136.114 20.0266 134.21 19.1819C132.348 18.3545 131.348 16.8548 131.111 14.8422C131.064 14.4242 131.055 13.9975 131.051 13.5709C131.046 11.5842 131.051 9.60175 131.051 7.61504V6.98584L131.055 6.99015Z" fill="#1D3451"/>
<path d="M190.958 15.3507H195.056C195.082 15.411 195.117 15.4713 195.125 15.536C195.237 16.6608 196.672 16.8806 197.366 16.4281C197.961 16.0402 197.948 15.3076 197.302 15.0059C196.879 14.8077 196.401 14.7172 195.94 14.6094C195.298 14.4586 194.634 14.3724 194.005 14.1871C193.522 14.0449 193.052 13.8251 192.617 13.5665C191.889 13.1269 191.449 12.4589 191.255 11.6186C190.837 9.79131 191.592 8.12782 193.246 7.25297C193.884 6.91683 194.565 6.70997 195.276 6.62809C196.539 6.47725 197.784 6.51604 198.991 6.97716C200.749 7.64515 201.715 9.09316 201.719 10.6575C201.366 10.761 198.547 10.7911 197.802 10.7049C197.685 10.455 197.612 10.1835 197.453 9.98093C197.069 9.49826 196 9.45086 195.539 9.86026C195.117 10.2352 195.143 10.8299 195.638 11.1014C195.961 11.2738 196.332 11.3772 196.69 11.4591C197.384 11.6186 198.086 11.7349 198.784 11.8771C198.965 11.9159 199.146 11.9633 199.323 12.0194C200.633 12.4374 201.628 13.17 201.887 14.6223C202.154 16.1522 201.797 17.4839 200.586 18.5225C199.9 19.1129 199.086 19.4361 198.211 19.6214C196.875 19.9016 195.539 19.8886 194.233 19.4922C192.69 19.0267 191.574 18.0872 191.135 16.4798C191.04 16.1307 191.01 15.7601 190.945 15.3593L190.958 15.3507Z" fill="#1D3451"/>
<path d="M107.77 10.7135H103.836C103.814 10.6747 103.784 10.6489 103.78 10.6187C103.668 9.67492 102.819 9.47668 102.034 9.6232C101.935 9.64044 101.84 9.68354 101.75 9.73094C101.457 9.8904 101.31 10.136 101.302 10.4765C101.297 10.8126 101.474 11.0454 101.763 11.1402C102.258 11.3082 102.771 11.4332 103.28 11.5539C103.909 11.7004 104.542 11.8168 105.172 11.959C105.37 12.0021 105.56 12.0753 105.749 12.1486C107.352 12.7476 108.111 13.9328 107.999 15.7773C107.908 17.2985 107.115 18.3846 105.779 19.0784C104.469 19.755 103.06 19.8886 101.616 19.7507C100.78 19.6731 99.9743 19.4706 99.2374 19.0612C97.91 18.3199 97.1602 17.1994 97.0395 15.6738C97.0352 15.6049 97.0395 15.5402 97.0395 15.4713C97.0395 15.4411 97.0654 15.411 97.0912 15.3549H101.086C101.103 15.4153 101.121 15.4627 101.134 15.5101C101.388 16.4711 102.263 16.915 103.181 16.5401C103.534 16.3935 103.775 16.1565 103.801 15.7471C103.827 15.3161 103.573 15.0576 103.219 14.9498C102.62 14.7688 102 14.6611 101.392 14.5103C100.737 14.3465 100.065 14.2172 99.4313 13.9845C96.5137 12.9157 96.6646 9.25689 98.4487 7.81318C98.9012 7.44687 99.3925 7.14951 99.9442 6.9642C101.573 6.41688 103.219 6.3781 104.844 6.9211C106.348 7.42101 107.365 8.42083 107.688 10.024C107.732 10.2352 107.732 10.4593 107.757 10.7221L107.77 10.7135Z" fill="#1D3451"/>
<path d="M67.4974 15.3463H71.4924C71.514 15.4023 71.5398 15.4454 71.5484 15.4928C71.6734 16.5961 72.8758 16.8158 73.5869 16.5314C73.9402 16.3892 74.1902 16.1522 74.2161 15.7471C74.2462 15.3204 73.9963 15.0532 73.6386 14.9455C73.0395 14.7645 72.419 14.6568 71.8156 14.5016C71.1261 14.3249 70.4193 14.1913 69.76 13.9371C66.9674 12.8554 67.1785 9.44217 68.6007 8.05018C69.3333 7.33479 70.2038 6.91245 71.1864 6.71421C72.5396 6.44271 73.8928 6.44271 75.2116 6.89091C76.7716 7.42098 77.8232 8.43804 78.1248 10.1145C78.155 10.2955 78.1593 10.4808 78.1809 10.7006H74.2333C74.2161 10.6618 74.1859 10.6187 74.1687 10.5713C73.9058 9.68782 73.0956 9.31719 72.2509 9.68782C71.9061 9.83865 71.7122 10.1015 71.7036 10.4722C71.695 10.8212 71.9018 11.0583 72.2121 11.1617C72.6948 11.3168 73.1904 11.4375 73.6817 11.5539C74.4229 11.7306 75.1771 11.8598 75.9097 12.071C76.3278 12.1917 76.7285 12.4072 77.0949 12.6442C77.7197 13.045 78.1162 13.6354 78.28 14.3594C78.7756 16.5228 77.8878 18.2466 76.095 19.1172C74.8022 19.7464 73.4317 19.88 72.0182 19.742C71.2856 19.6731 70.5788 19.5093 69.9108 19.1861C68.424 18.475 67.5879 17.3071 67.4371 15.6566C67.4328 15.5876 67.4285 15.523 67.4371 15.454C67.4371 15.4239 67.463 15.3937 67.4931 15.3377L67.4974 15.3463Z" fill="#1D3451"/>
<path d="M153.87 19.3628C153.762 19.3714 153.646 19.3844 153.534 19.3844C152.65 19.3844 151.767 19.4016 150.883 19.3757C150.444 19.3628 150 19.3068 149.578 19.2034C147.906 18.7853 146.828 17.5485 146.621 15.8419C146.578 15.4713 146.557 15.0963 146.557 14.7257C146.548 13.4372 146.557 12.1486 146.557 10.86V10.2481H144.333C144.238 9.66628 144.255 9.22239 144.691 8.7742C146.289 7.13656 147.854 5.46014 149.401 3.77078C149.767 3.36568 150.138 3.22347 150.715 3.36568C150.72 3.94317 150.724 4.54651 150.728 5.14985C150.733 5.73595 150.737 6.32636 150.741 6.95987H153.827V10.2222H150.871C150.858 10.4248 150.832 10.5885 150.832 10.748C150.832 11.8168 150.832 12.8855 150.832 13.9543C150.832 14.0577 150.832 14.1569 150.84 14.2603C150.922 15.1868 151.388 15.6264 152.323 15.6393C152.831 15.648 153.34 15.6393 153.84 15.6393C153.956 16.0186 153.978 18.7724 153.87 19.3671V19.3628Z" fill="#1D3451"/>
<path d="M29.1165 10.2395H26.8626C26.7678 9.65772 26.8066 9.21815 27.2375 8.77857C28.8278 7.15386 30.3792 5.48606 31.9177 3.80964C32.2884 3.40885 32.6547 3.17613 33.2623 3.37868C33.314 3.92169 33.2753 4.50779 33.2839 5.09389C33.2925 5.6843 33.2839 6.27902 33.2839 6.9427H36.3695V10.2223H33.4261C33.4132 10.4378 33.3959 10.5886 33.3959 10.7351C33.3959 11.8556 33.3916 12.9761 33.3959 14.0966C33.3959 15.1438 33.8786 15.6265 34.9172 15.6394C35.4085 15.6437 35.8998 15.6394 36.3825 15.6394C36.4945 16.0359 36.529 18.2596 36.4471 19.3456C36.3264 19.3586 36.1971 19.3844 36.0722 19.3844C35.2059 19.3844 34.3397 19.4017 33.4735 19.3801C33.0512 19.3672 32.6245 19.3284 32.2108 19.2293C30.3965 18.8026 29.2286 17.415 29.151 15.5144C29.0864 13.9716 29.1251 12.4288 29.1208 10.8816C29.1208 10.6834 29.1208 10.4852 29.1208 10.2352L29.1165 10.2395Z" fill="#1D3451"/>
<path d="M124.625 2.49951H128.831V19.3499H124.664C124.561 19.0052 124.517 3.44762 124.625 2.49951Z" fill="#1D3451"/>
<path d="M155.624 19.3585V6.99438H159.839V19.3585H155.624Z" fill="#1D3451"/>
<path d="M155.71 1.78418H159.761C159.869 2.1548 159.899 4.53369 159.809 5.27493C159.455 5.38267 156.46 5.41715 155.719 5.32234C155.602 4.94741 155.589 2.27547 155.706 1.78418H155.71Z" fill="#1D3451"/>
<path d="M12.9082 12.0624C13.1236 12.7735 13.3434 13.4846 13.5546 14.2C14.0157 15.7773 14.4725 17.3546 14.9294 18.9362C14.9811 19.1129 15.0199 19.2896 15.0716 19.5137C14.9121 19.5309 14.7871 19.5611 14.6579 19.5611C12.2617 19.5611 9.86992 19.5611 7.4738 19.5611C7.38761 19.5611 7.30142 19.5611 7.21954 19.5568C6.69377 19.4964 6.50846 19.2335 6.65067 18.7164C6.94373 17.6735 7.2454 16.6306 7.54707 15.5876C7.84012 14.5792 8.13317 13.5708 8.42622 12.5623C8.47362 12.4029 8.52534 12.2434 8.57274 12.1055C8.63308 12.084 8.66324 12.0581 8.69341 12.0581C10.1026 12.0581 11.5076 12.0667 12.9168 12.0753L12.9039 12.0667L12.9082 12.0624ZM8.98646 14.7731C9.01232 14.493 8.85717 14.3163 8.65893 14.4068C8.56412 14.4499 8.46931 14.5533 8.43484 14.6525C8.34003 14.9024 8.27538 15.1696 8.20212 15.4282C7.96078 16.2686 7.71945 17.1132 7.46949 17.9536C7.41347 18.1389 7.43071 18.2897 7.62033 18.3802C7.78409 18.4578 7.94355 18.3544 8.03405 18.126C8.0599 18.0613 8.07283 17.9967 8.09438 17.9321C8.3745 16.9624 8.65893 15.9884 8.93906 15.0145C8.9606 14.9326 8.97784 14.8507 8.99508 14.7774L8.98646 14.7731Z" fill="#1D3451"/>
<path d="M13.4814 12.1099C13.6754 12.0798 13.8736 12.0496 14.0891 12.0151C14.1494 12.1574 14.2055 12.2608 14.2399 12.3685C14.839 14.4328 15.4337 16.4928 16.0284 18.5571C16.1706 19.0527 16.1232 19.1733 15.7009 19.3974C15.6362 19.2035 15.563 19.0182 15.5069 18.8286C14.9122 16.7643 14.3218 14.7 13.7228 12.6357C13.6711 12.4504 13.5633 12.2823 13.4814 12.1056V12.1099Z" fill="#1D3451"/>
</g>
<defs>
<clipPath id="clip0_346_465">
<rect width="201.972" height="24" fill="white" transform="translate(0.013916)"/>
</clipPath>
</defs>
</svg>
