<svg width="54" height="49" viewBox="0 0 54 49" fill="none" xmlns="http://www.w3.org/2000/svg">
<path d="M52.3534 16.1284C48.9478 7.01795 40.1673 0.528931 29.8675 0.528931C19.5676 0.528931 10.7872 7.01795 7.38154 16.1284C6.40389 18.7436 5.86672 21.5737 5.86672 24.5297C5.86672 26.5771 6.12456 28.5631 6.60648 30.4601C6.92111 31.6986 7.3355 32.8988 7.8343 34.0514L0.132812 45.7218L15.3562 43.6407C19.3865 46.7056 24.4129 48.5289 29.866 48.5289C41.0744 48.5289 50.4872 40.8459 53.127 30.4585C53.6089 28.5615 53.8667 26.5756 53.8667 24.5282C53.8667 21.5722 53.3296 18.7421 52.3519 16.1268L52.3534 16.1284ZM29.8675 44.8102C18.6683 44.8102 9.58855 35.7305 9.58855 24.5312C9.58855 13.332 18.6683 4.25075 29.8675 4.25075C41.0667 4.25075 50.1464 13.3305 50.1464 24.5297C50.1464 35.7289 41.0667 44.8086 29.8675 44.8086V44.8102Z" fill="#363FC4"/>
<path d="M28.4232 33.6815C28.0825 33.3562 27.5637 33.304 27.1632 33.5511C26.2868 34.0898 25.412 34.6316 24.5356 35.1718C24.2241 35.3636 23.8158 35.3422 23.5334 35.1089C20.4838 32.5842 18.6283 29.3581 17.8517 25.4935C17.7719 25.0976 17.976 24.7016 18.3306 24.5051C19.0534 24.103 19.7471 23.6411 20.424 23.1653C20.7632 22.9259 20.9473 22.5222 20.9136 22.1094C20.7939 20.6268 20.6895 19.1411 20.6296 17.6539C20.5882 16.6118 20.5314 15.6587 19.4187 15.3717C18.6252 15.1676 17.8717 15.0878 17.1887 15.3564C15.482 16.0286 14.202 17.1689 13.4208 18.8449C12.6105 20.5823 12.5936 22.4025 12.9512 24.2258C13.5114 27.082 14.4952 29.7955 15.7966 32.4061C17.5632 35.9469 20.3442 38.5176 23.5242 40.7369C24.531 41.4398 25.5977 41.911 26.8378 41.957C29.9304 42.0737 31.5925 41.0469 32.5072 38.5913C32.6561 38.1922 32.6684 37.8316 32.3369 37.5077C31.0323 36.2339 29.7431 34.9431 28.4248 33.6831L28.4232 33.6815Z" fill="#363FC4"/>
<path d="M33.1533 17.6368C33.7511 16.155 33.0345 14.4692 31.5527 13.8715C30.071 13.2737 28.3852 13.9903 27.7874 15.4721C27.1897 16.9538 27.9063 18.6396 29.388 19.2374C30.8698 19.8351 32.5556 19.1185 33.1533 17.6368Z" fill="#363FC4"/>
<path d="M43.4586 17.3571C43.8998 15.8215 43.0126 14.2189 41.477 13.7777C39.9413 13.3365 38.3387 14.2237 37.8975 15.7594C37.4563 17.295 38.3435 18.8976 39.8792 19.3388C41.4148 19.78 43.0174 18.8928 43.4586 17.3571Z" fill="#363FC4"/>
</svg>
