<svg width="25" height="24" viewBox="0 0 25 24" fill="none" xmlns="http://www.w3.org/2000/svg">
<path d="M20.341 4.55156C18.377 2.58281 15.7613 1.5 12.9816 1.5C7.24414 1.5 2.57539 6.16875 2.57539 11.9062C2.57539 13.7391 3.05352 15.5297 3.96289 17.1094L2.48633 22.5L8.00352 21.0516C9.52227 21.8813 11.2332 22.3172 12.977 22.3172H12.9816C18.7145 22.3172 23.4863 17.6484 23.4863 11.9109C23.4863 9.13125 22.3051 6.52031 20.341 4.55156ZM12.9816 20.5641C11.4254 20.5641 9.90195 20.1469 8.57539 19.3594L8.26133 19.1719L4.98945 20.0297L5.86133 16.8375L5.65508 16.5094C4.78789 15.1313 4.3332 13.5422 4.3332 11.9062C4.3332 7.13906 8.21445 3.25781 12.9863 3.25781C15.2973 3.25781 17.4676 4.15781 19.0988 5.79375C20.7301 7.42969 21.7332 9.6 21.7285 11.9109C21.7285 16.6828 17.7488 20.5641 12.9816 20.5641ZM17.7254 14.0859C17.4676 13.9547 16.1879 13.3266 15.9488 13.2422C15.7098 13.1531 15.5363 13.1109 15.3629 13.3734C15.1895 13.6359 14.6926 14.2172 14.5379 14.3953C14.3879 14.5688 14.2332 14.5922 13.9754 14.4609C12.4473 13.6969 11.4441 13.0969 10.4363 11.3672C10.1691 10.9078 10.7035 10.9406 11.2004 9.94687C11.2848 9.77344 11.2426 9.62344 11.177 9.49219C11.1113 9.36094 10.591 8.08125 10.3754 7.56094C10.1645 7.05469 9.94883 7.125 9.78945 7.11563C9.63945 7.10625 9.46602 7.10625 9.29258 7.10625C9.11914 7.10625 8.83789 7.17188 8.59883 7.42969C8.35977 7.69219 7.68945 8.32031 7.68945 9.6C7.68945 10.8797 8.62227 12.1172 8.74883 12.2906C8.88008 12.4641 10.5816 15.0891 13.1926 16.2188C14.8426 16.9312 15.4895 16.9922 16.3145 16.8703C16.816 16.7953 17.852 16.2422 18.0676 15.6328C18.2832 15.0234 18.2832 14.5031 18.2176 14.3953C18.1566 14.2781 17.9832 14.2125 17.7254 14.0859Z" fill="#1D3451"/>
</svg>
