<svg width="25" height="24" viewBox="0 0 25 24" fill="none" xmlns="http://www.w3.org/2000/svg">
<g clip-path="url(#clip0_346_470)">
<path d="M23.5264 6.42C23.4076 5.94541 23.1657 5.51057 22.8251 5.15941C22.4844 4.80824 22.0572 4.55318 21.5864 4.42C19.8664 4 12.9864 4 12.9864 4C12.9864 4 6.10641 4 4.38641 4.46C3.91566 4.59318 3.48839 4.84824 3.14776 5.19941C2.80713 5.55057 2.5652 5.98541 2.44641 6.46C2.13163 8.20556 1.97765 9.97631 1.98641 11.75C1.97519 13.537 2.12918 15.3213 2.44641 17.08C2.57737 17.5398 2.82472 17.9581 3.16456 18.2945C3.50439 18.6308 3.92523 18.8738 4.38641 19C6.10641 19.46 12.9864 19.46 12.9864 19.46C12.9864 19.46 19.8664 19.46 21.5864 19C22.0572 18.8668 22.4844 18.6118 22.8251 18.2606C23.1657 17.9094 23.4076 17.4746 23.5264 17C23.8388 15.2676 23.9927 13.5103 23.9864 11.75C23.9976 9.96295 23.8436 8.1787 23.5264 6.42Z" stroke="#1D3451" stroke-width="2" stroke-linecap="round" stroke-linejoin="round"/>
<path d="M10.7363 15.02L16.4863 11.75L10.7363 8.47998V15.02Z" stroke="#1D3451" stroke-width="2" stroke-linecap="round" stroke-linejoin="round"/>
</g>
<defs>
<clipPath id="clip0_346_470">
<rect width="24" height="24" fill="white" transform="translate(0.986328)"/>
</clipPath>
</defs>
</svg>
